<?xml version="1.0" encoding="us-ascii" standalone="no"?><svg xmlns="http://www.w3.org/2000/svg" xmlns:xlink="http://www.w3.org/1999/xlink" contentStyleType="text/css" height="1398px" preserveAspectRatio="none" style="width:1001px;height:1398px;background:#FFFFFF;" version="1.1" viewBox="0 0 1001 1398" width="1001px" zoomAndPan="magnify"><defs/><g><rect fill="#FFFFFF" height="1189.9316" style="stroke:#181818;stroke-width:1.0;" width="10" x="159.5" y="116.9121"/><rect fill="none" height="374.6563" style="stroke:#000000;stroke-width:1.5;" width="522" x="99" y="131.9121"/><rect fill="none" height="525.9473" style="stroke:#000000;stroke-width:1.5;" width="896" x="99" y="551.8594"/><rect fill="none" height="144.4551" style="stroke:#000000;stroke-width:1.5;" width="326" x="563" y="609.4414"/><rect fill="none" height="50.582" style="stroke:#000000;stroke-width:1.5;" width="326" x="563" y="767.8965"/><rect fill="none" height="207.0371" style="stroke:#000000;stroke-width:1.5;" width="422" x="563" y="832.4785"/><rect fill="none" height="207.0371" style="stroke:#000000;stroke-width:1.5;" width="886" x="99" y="1091.8066"/><line style="stroke:#181818;stroke-width:0.5;stroke-dasharray:5.0,5.0;" x1="32" x2="32" y1="83.6211" y2="1315.8438"/><line style="stroke:#181818;stroke-width:0.5;stroke-dasharray:5.0,5.0;" x1="164" x2="164" y1="83.6211" y2="1315.8438"/><line style="stroke:#181818;stroke-width:0.5;stroke-dasharray:5.0,5.0;" x1="488" x2="488" y1="83.6211" y2="1315.8438"/><line style="stroke:#181818;stroke-width:0.5;stroke-dasharray:5.0,5.0;" x1="623" x2="623" y1="83.6211" y2="1315.8438"/><line style="stroke:#181818;stroke-width:0.5;stroke-dasharray:5.0,5.0;" x1="845" x2="845" y1="83.6211" y2="1315.8438"/><line style="stroke:#181818;stroke-width:0.5;stroke-dasharray:5.0,5.0;" x1="953" x2="953" y1="83.6211" y2="1315.8438"/><text fill="#000000" font-family="sans-serif" font-size="14" lengthAdjust="spacing" textLength="49" x="5" y="80.1074">Android</text><ellipse cx="32.5" cy="13.5" fill="#008000" rx="8" ry="8" style="stroke:#181818;stroke-width:0.5;"/><path d="M32.5,21.5 L32.5,48.5 M19.5,29.5 L45.5,29.5 M32.5,48.5 L19.5,63.5 M32.5,48.5 L45.5,63.5 " fill="none" style="stroke:#181818;stroke-width:0.5;"/><text fill="#000000" font-family="sans-serif" font-size="14" lengthAdjust="spacing" textLength="49" x="5" y="1329.9512">Android</text><ellipse cx="32.5" cy="1341.9648" fill="#008000" rx="8" ry="8" style="stroke:#181818;stroke-width:0.5;"/><path d="M32.5,1349.9648 L32.5,1376.9648 M19.5,1357.9648 L45.5,1357.9648 M32.5,1376.9648 L19.5,1391.9648 M32.5,1376.9648 L45.5,1391.9648 " fill="none" style="stroke:#181818;stroke-width:0.5;"/><rect fill="#E2E2F0" height="32.6211" rx="2.5" ry="2.5" style="stroke:#181818;stroke-width:0.5;" width="111" x="109" y="50"/><text fill="#000000" font-family="sans-serif" font-size="14" lengthAdjust="spacing" textLength="97" x="116" y="72.1074">SceneRenderer</text><rect fill="#E2E2F0" height="32.6211" rx="2.5" ry="2.5" style="stroke:#181818;stroke-width:0.5;" width="111" x="109" y="1314.8438"/><text fill="#000000" font-family="sans-serif" font-size="14" lengthAdjust="spacing" textLength="97" x="116" y="1336.9512">SceneRenderer</text><rect fill="#E2E2F0" height="32.6211" rx="2.5" ry="2.5" style="stroke:#181818;stroke-width:0.5;" width="149" x="414" y="50"/><text fill="#000000" font-family="sans-serif" font-size="14" lengthAdjust="spacing" textLength="135" x="421" y="72.1074">TextResourceReader</text><rect fill="#E2E2F0" height="32.6211" rx="2.5" ry="2.5" style="stroke:#181818;stroke-width:0.5;" width="149" x="414" y="1314.8438"/><text fill="#000000" font-family="sans-serif" font-size="14" lengthAdjust="spacing" textLength="135" x="421" y="1336.9512">TextResourceReader</text><rect fill="#E2E2F0" height="32.6211" rx="2.5" ry="2.5" style="stroke:#181818;stroke-width:0.5;" width="101" x="573" y="50"/><text fill="#000000" font-family="sans-serif" font-size="14" lengthAdjust="spacing" textLength="87" x="580" y="72.1074">ShaderHelper</text><rect fill="#E2E2F0" height="32.6211" rx="2.5" ry="2.5" style="stroke:#181818;stroke-width:0.5;" width="101" x="573" y="1314.8438"/><text fill="#000000" font-family="sans-serif" font-size="14" lengthAdjust="spacing" textLength="87" x="580" y="1336.9512">ShaderHelper</text><rect fill="#E2E2F0" height="32.6211" rx="2.5" ry="2.5" style="stroke:#181818;stroke-width:0.5;" width="67" x="812" y="50"/><text fill="#000000" font-family="sans-serif" font-size="14" lengthAdjust="spacing" textLength="53" x="819" y="72.1074">GLES20</text><rect fill="#E2E2F0" height="32.6211" rx="2.5" ry="2.5" style="stroke:#181818;stroke-width:0.5;" width="67" x="812" y="1314.8438"/><text fill="#000000" font-family="sans-serif" font-size="14" lengthAdjust="spacing" textLength="53" x="819" y="1336.9512">GLES20</text><rect fill="#99FF99" height="32.6211" rx="2.5" ry="2.5" style="stroke:#181818;stroke-width:0.5;" width="43" x="932" y="50"/><text fill="#000000" font-family="sans-serif" font-size="14" lengthAdjust="spacing" textLength="29" x="939" y="72.1074">GPU</text><rect fill="#99FF99" height="32.6211" rx="2.5" ry="2.5" style="stroke:#181818;stroke-width:0.5;" width="43" x="932" y="1314.8438"/><text fill="#000000" font-family="sans-serif" font-size="14" lengthAdjust="spacing" textLength="29" x="939" y="1336.9512">GPU</text><rect fill="#FFFFFF" height="1189.9316" style="stroke:#181818;stroke-width:1.0;" width="10" x="159.5" y="116.9121"/><polygon fill="#181818" points="147.5,112.9121,157.5,116.9121,147.5,120.9121,151.5,116.9121" style="stroke:#181818;stroke-width:1.0;"/><line style="stroke:#181818;stroke-width:1.0;" x1="32.5" x2="153.5" y1="116.9121" y2="116.9121"/><text fill="#000000" font-family="sans-serif" font-size="13" lengthAdjust="spacing" textLength="23" x="39.5" y="111.6494">new</text><path d="M99,131.9121 L285,131.9121 L285,141.2031 L275,151.2031 L99,151.2031 L99,131.9121 " fill="#EEEEEE" style="stroke:#000000;stroke-width:1.5;"/><rect fill="none" height="374.6563" style="stroke:#000000;stroke-width:1.5;" width="522" x="99" y="131.9121"/><text fill="#000000" font-family="sans-serif" font-size="13" font-weight="bold" lengthAdjust="spacing" textLength="141" x="114" y="146.9404">Load OpenGL shaders</text><polygon fill="#181818" points="476.5,170.4941,486.5,174.4941,476.5,178.4941,480.5,174.4941" style="stroke:#181818;stroke-width:1.0;"/><line style="stroke:#181818;stroke-width:1.0;" x1="169.5" x2="482.5" y1="174.4941" y2="174.4941"/><text fill="#000000" font-family="sans-serif" font-size="13" lengthAdjust="spacing" textLength="279" x="176.5" y="169.2314">readTextFileFromResource(color_vertex_shader)</text><path d="M366,187.4941 L366,300.4941 L611,300.4941 L611,197.4941 L601,187.4941 L366,187.4941 " fill="#FEFFDD" style="stroke:#181818;stroke-width:0.5;"/><path d="M601,187.4941 L601,197.4941 L611,197.4941 L601,187.4941 " fill="#FEFFDD" style="stroke:#181818;stroke-width:0.5;"/><text fill="#000000" font-family="sans-serif" font-size="13" lengthAdjust="spacing" textLength="133" x="372" y="206.5225">uniform mat4 u_Matrix;</text><text fill="#000000" font-family="sans-serif" font-size="13" lengthAdjust="spacing" textLength="146" x="372" y="223.8135">attribute vec4 a_Position;</text><text fill="#000000" font-family="sans-serif" font-size="13" lengthAdjust="spacing" textLength="62" x="372" y="241.1045">void main()</text><text fill="#000000" font-family="sans-serif" font-size="13" lengthAdjust="spacing" textLength="4" x="372" y="258.3955">{</text><text fill="#000000" font-family="sans-serif" font-size="13" lengthAdjust="spacing" textLength="208" x="388" y="275.6865">gl_Position = u_Matrix * a_Position;</text><text fill="#000000" font-family="sans-serif" font-size="13" lengthAdjust="spacing" textLength="4" x="372" y="292.9775">}</text><polygon fill="#181818" points="180.5,325.5313,170.5,329.5313,180.5,333.5313,176.5,329.5313" style="stroke:#181818;stroke-width:1.0;"/><line style="stroke:#181818;stroke-width:1.0;" x1="174.5" x2="487.5" y1="329.5313" y2="329.5313"/><text fill="#000000" font-family="sans-serif" font-size="13" lengthAdjust="spacing" textLength="105" x="186.5" y="324.2686">vertexShaderCode</text><polygon fill="#181818" points="476.5,356.8223,486.5,360.8223,476.5,364.8223,480.5,360.8223" style="stroke:#181818;stroke-width:1.0;"/><line style="stroke:#181818;stroke-width:1.0;" x1="169.5" x2="482.5" y1="360.8223" y2="360.8223"/><text fill="#000000" font-family="sans-serif" font-size="13" lengthAdjust="spacing" textLength="295" x="176.5" y="355.5596">readTextFileFromResource(color_fragment_shader)</text><path d="M401,373.8223 L401,469.8223 L575,469.8223 L575,383.8223 L565,373.8223 L401,373.8223 " fill="#00FFFF" style="stroke:#181818;stroke-width:0.5;"/><path d="M565,373.8223 L565,383.8223 L575,383.8223 L565,373.8223 " fill="#00FFFF" style="stroke:#181818;stroke-width:0.5;"/><text fill="#000000" font-family="sans-serif" font-size="13" lengthAdjust="spacing" textLength="124" x="407" y="392.8506">uniform vec4 u_Color;</text><text fill="#000000" font-family="sans-serif" font-size="13" lengthAdjust="spacing" textLength="62" x="407" y="410.1416">void main()</text><text fill="#000000" font-family="sans-serif" font-size="13" lengthAdjust="spacing" textLength="4" x="407" y="427.4326">{</text><text fill="#000000" font-family="sans-serif" font-size="13" lengthAdjust="spacing" textLength="137" x="423" y="444.7236">gl_FragColor = u_Color;</text><text fill="#000000" font-family="sans-serif" font-size="13" lengthAdjust="spacing" textLength="4" x="407" y="462.0146">}</text><polygon fill="#181818" points="180.5,494.5684,170.5,498.5684,180.5,502.5684,176.5,498.5684" style="stroke:#181818;stroke-width:1.0;"/><line style="stroke:#181818;stroke-width:1.0;" x1="174.5" x2="487.5" y1="498.5684" y2="498.5684"/><text fill="#000000" font-family="sans-serif" font-size="13" lengthAdjust="spacing" textLength="121" x="186.5" y="493.3057">fragmentShaderCode</text><polygon fill="#181818" points="147.5,532.8594,157.5,536.8594,147.5,540.8594,151.5,536.8594" style="stroke:#181818;stroke-width:1.0;"/><line style="stroke:#181818;stroke-width:1.0;" x1="32.5" x2="153.5" y1="536.8594" y2="536.8594"/><text fill="#000000" font-family="sans-serif" font-size="13" lengthAdjust="spacing" textLength="103" x="39.5" y="531.5967">onSurfaceCreated</text><path d="M99,551.8594 L359,551.8594 L359,561.1504 L349,571.1504 L99,571.1504 L99,551.8594 " fill="#EEEEEE" style="stroke:#000000;stroke-width:1.5;"/><rect fill="none" height="525.9473" style="stroke:#000000;stroke-width:1.5;" width="896" x="99" y="551.8594"/><text fill="#000000" font-family="sans-serif" font-size="13" font-weight="bold" lengthAdjust="spacing" textLength="215" x="114" y="566.8877">Compile shaders to be run at GPU</text><polygon fill="#181818" points="611.5,590.4414,621.5,594.4414,611.5,598.4414,615.5,594.4414" style="stroke:#181818;stroke-width:1.0;"/><line style="stroke:#181818;stroke-width:1.0;" x1="169.5" x2="617.5" y1="594.4414" y2="594.4414"/><text fill="#000000" font-family="sans-serif" font-size="13" lengthAdjust="spacing" textLength="318" x="176.5" y="589.1787">buildProgram(vertexShaderCode, fragmentShaderCode)</text><path d="M563,609.4414 L754,609.4414 L754,618.7324 L744,628.7324 L563,628.7324 L563,609.4414 " fill="#EEEEEE" style="stroke:#000000;stroke-width:1.5;"/><rect fill="none" height="144.4551" style="stroke:#000000;stroke-width:1.5;" width="326" x="563" y="609.4414"/><text fill="#000000" font-family="sans-serif" font-size="13" font-weight="bold" lengthAdjust="spacing" textLength="146" x="578" y="624.4697">Compile Vertex shader</text><polygon fill="#181818" points="833.5,648.0234,843.5,652.0234,833.5,656.0234,837.5,652.0234" style="stroke:#181818;stroke-width:1.0;"/><line style="stroke:#181818;stroke-width:1.0;" x1="623.5" x2="839.5" y1="652.0234" y2="652.0234"/><text fill="#000000" font-family="sans-serif" font-size="13" lengthAdjust="spacing" textLength="89" x="630.5" y="646.7607">glCreateShader</text><polygon fill="#181818" points="833.5,679.3145,843.5,683.3145,833.5,687.3145,837.5,683.3145" style="stroke:#181818;stroke-width:1.0;"/><line style="stroke:#181818;stroke-width:1.0;" x1="623.5" x2="839.5" y1="683.3145" y2="683.3145"/><text fill="#000000" font-family="sans-serif" font-size="13" lengthAdjust="spacing" textLength="92" x="630.5" y="678.0518">glShaderSource</text><polygon fill="#181818" points="833.5,710.6055,843.5,714.6055,833.5,718.6055,837.5,714.6055" style="stroke:#181818;stroke-width:1.0;"/><line style="stroke:#181818;stroke-width:1.0;" x1="623.5" x2="839.5" y1="714.6055" y2="714.6055"/><text fill="#000000" font-family="sans-serif" font-size="13" lengthAdjust="spacing" textLength="98" x="630.5" y="709.3428">glCompileShader</text><polygon fill="#181818" points="634.5,741.8965,624.5,745.8965,634.5,749.8965,630.5,745.8965" style="stroke:#181818;stroke-width:1.0;"/><line style="stroke:#181818;stroke-width:1.0;" x1="628.5" x2="844.5" y1="745.8965" y2="745.8965"/><text fill="#000000" font-family="sans-serif" font-size="13" lengthAdjust="spacing" textLength="85" x="640.5" y="740.6338">vertexShaderId</text><path d="M563,767.8965 L773,767.8965 L773,777.1875 L763,787.1875 L563,787.1875 L563,767.8965 " fill="#EEEEEE" style="stroke:#000000;stroke-width:1.5;"/><rect fill="none" height="50.582" style="stroke:#000000;stroke-width:1.5;" width="326" x="563" y="767.8965"/><text fill="#000000" font-family="sans-serif" font-size="13" font-weight="bold" lengthAdjust="spacing" textLength="165" x="578" y="782.9248">Compile Fragment shader</text><polygon fill="#181818" points="634.5,806.4785,624.5,810.4785,634.5,814.4785,630.5,810.4785" style="stroke:#181818;stroke-width:1.0;"/><line style="stroke:#181818;stroke-width:1.0;" x1="628.5" x2="844.5" y1="810.4785" y2="810.4785"/><text fill="#000000" font-family="sans-serif" font-size="13" lengthAdjust="spacing" textLength="101" x="640.5" y="805.2158">fragmentShaderId</text><path d="M563,832.4785 L750,832.4785 L750,841.7695 L740,851.7695 L563,851.7695 L563,832.4785 " fill="#EEEEEE" style="stroke:#000000;stroke-width:1.5;"/><rect fill="none" height="207.0371" style="stroke:#000000;stroke-width:1.5;" width="422" x="563" y="832.4785"/><text fill="#000000" font-family="sans-serif" font-size="13" font-weight="bold" lengthAdjust="spacing" textLength="142" x="578" y="847.5068">Link OpenGL Program</text><polygon fill="#181818" points="833.5,871.0605,843.5,875.0605,833.5,879.0605,837.5,875.0605" style="stroke:#181818;stroke-width:1.0;"/><line style="stroke:#181818;stroke-width:1.0;" x1="623.5" x2="839.5" y1="875.0605" y2="875.0605"/><text fill="#000000" font-family="sans-serif" font-size="13" lengthAdjust="spacing" textLength="97" x="630.5" y="869.7979">glCreateProgram</text><polygon fill="#181818" points="833.5,902.3516,843.5,906.3516,833.5,910.3516,837.5,906.3516" style="stroke:#181818;stroke-width:1.0;"/><line style="stroke:#181818;stroke-width:1.0;" x1="623.5" x2="839.5" y1="906.3516" y2="906.3516"/><text fill="#000000" font-family="sans-serif" font-size="13" lengthAdjust="spacing" textLength="182" x="630.5" y="901.0889">glAttachShader(vertexShaderId)</text><polygon fill="#181818" points="833.5,933.6426,843.5,937.6426,833.5,941.6426,837.5,937.6426" style="stroke:#181818;stroke-width:1.0;"/><line style="stroke:#181818;stroke-width:1.0;" x1="623.5" x2="839.5" y1="937.6426" y2="937.6426"/><text fill="#000000" font-family="sans-serif" font-size="13" lengthAdjust="spacing" textLength="198" x="630.5" y="932.3799">glAttachShader(fragmentShaderId)</text><polygon fill="#181818" points="833.5,964.9336,843.5,968.9336,833.5,972.9336,837.5,968.9336" style="stroke:#181818;stroke-width:1.0;"/><line style="stroke:#181818;stroke-width:1.0;" x1="623.5" x2="839.5" y1="968.9336" y2="968.9336"/><text fill="#000000" font-family="sans-serif" font-size="13" lengthAdjust="spacing" textLength="83" x="630.5" y="963.6709">glLinkProgram</text><polygon fill="#181818" points="941.5,996.2246,951.5,1000.2246,941.5,1004.2246,945.5,1000.2246" style="stroke:#181818;stroke-width:1.0;"/><line style="stroke:#181818;stroke-width:1.0;" x1="845.5" x2="947.5" y1="1000.2246" y2="1000.2246"/><text fill="#000000" font-family="sans-serif" font-size="13" lengthAdjust="spacing" textLength="84" x="852.5" y="994.9619">programToRun</text><polygon fill="#181818" points="634.5,1027.5156,624.5,1031.5156,634.5,1035.5156,630.5,1031.5156" style="stroke:#181818;stroke-width:1.0;"/><line style="stroke:#181818;stroke-width:1.0;" x1="628.5" x2="844.5" y1="1031.5156" y2="1031.5156"/><text fill="#000000" font-family="sans-serif" font-size="13" lengthAdjust="spacing" textLength="95" x="640.5" y="1026.2529">programObjectId</text><polygon fill="#181818" points="180.5,1065.8066,170.5,1069.8066,180.5,1073.8066,176.5,1069.8066" style="stroke:#181818;stroke-width:1.0;"/><line style="stroke:#181818;stroke-width:1.0;" x1="174.5" x2="622.5" y1="1069.8066" y2="1069.8066"/><text fill="#000000" font-family="sans-serif" font-size="13" lengthAdjust="spacing" textLength="95" x="186.5" y="1064.5439">programObjectId</text><path d="M99,1091.8066 L419,1091.8066 L419,1101.0977 L409,1111.0977 L99,1111.0977 L99,1091.8066 " fill="#EEEEEE" style="stroke:#000000;stroke-width:1.5;"/><rect fill="none" height="207.0371" style="stroke:#000000;stroke-width:1.5;" width="886" x="99" y="1091.8066"/><text fill="#000000" font-family="sans-serif" font-size="13" font-weight="bold" lengthAdjust="spacing" textLength="275" x="114" y="1106.835">Retrieve GPU "address" of shader variables</text><polygon fill="#181818" points="833.5,1130.3887,843.5,1134.3887,833.5,1138.3887,837.5,1134.3887" style="stroke:#181818;stroke-width:1.0;"/><line style="stroke:#181818;stroke-width:1.0;" x1="169.5" x2="839.5" y1="1134.3887" y2="1134.3887"/><text fill="#000000" font-family="sans-serif" font-size="13" lengthAdjust="spacing" textLength="283" x="176.5" y="1129.126">glGetAttribLocation(programObjectId, a_Position)</text><polygon fill="#181818" points="180.5,1161.6797,170.5,1165.6797,180.5,1169.6797,176.5,1165.6797" style="stroke:#181818;stroke-width:1.0;"/><line style="stroke:#181818;stroke-width:1.0;" x1="174.5" x2="952.5" y1="1165.6797" y2="1165.6797"/><text fill="#000000" font-family="sans-serif" font-size="13" lengthAdjust="spacing" textLength="103" x="186.5" y="1160.417">aPositionLocation</text><polygon fill="#181818" points="833.5,1192.9707,843.5,1196.9707,833.5,1200.9707,837.5,1196.9707" style="stroke:#181818;stroke-width:1.0;"/><line style="stroke:#181818;stroke-width:1.0;" x1="169.5" x2="839.5" y1="1196.9707" y2="1196.9707"/><text fill="#000000" font-family="sans-serif" font-size="13" lengthAdjust="spacing" textLength="285" x="176.5" y="1191.708">glGetUniformLocation(programObjectId, u_Matrix)</text><polygon fill="#181818" points="180.5,1224.2617,170.5,1228.2617,180.5,1232.2617,176.5,1228.2617" style="stroke:#181818;stroke-width:1.0;"/><line style="stroke:#181818;stroke-width:1.0;" x1="174.5" x2="952.5" y1="1228.2617" y2="1228.2617"/><text fill="#000000" font-family="sans-serif" font-size="13" lengthAdjust="spacing" textLength="92" x="186.5" y="1222.999">uMatrixLocation</text><polygon fill="#181818" points="833.5,1255.5527,843.5,1259.5527,833.5,1263.5527,837.5,1259.5527" style="stroke:#181818;stroke-width:1.0;"/><line style="stroke:#181818;stroke-width:1.0;" x1="169.5" x2="839.5" y1="1259.5527" y2="1259.5527"/><text fill="#000000" font-family="sans-serif" font-size="13" lengthAdjust="spacing" textLength="279" x="176.5" y="1254.29">glGetUniformLocation(programObjectId, u_Color)</text><polygon fill="#181818" points="180.5,1286.8438,170.5,1290.8438,180.5,1294.8438,176.5,1290.8438" style="stroke:#181818;stroke-width:1.0;"/><line style="stroke:#181818;stroke-width:1.0;" x1="174.5" x2="952.5" y1="1290.8438" y2="1290.8438"/><text fill="#000000" font-family="sans-serif" font-size="13" lengthAdjust="spacing" textLength="86" x="186.5" y="1285.5811">uColorLocation</text><!--SRC=[hLHTRzCm57tthx3MbnOD2T1UsWcagY85gTEgTjjhTPlSTeR43euTXX3_7N_48HzBEmHziNe_phddnBuGAo6f_yrv8WLBgdzGXC1REZfAH4v87NZzWTxyMAuso1EKA6UKutS2iM8bA6obo54AdTELW8JUviYNAreyWaaLf5bc4U_mIMsm45h6k45RCwFId3OUiHGZARAG7ySY5N9NebJujFE84yA5OHSc-0mMqPmTXCne1kgAwjqDACcUhWaeS-wrQImnlgAmMuk2AIRuDIcj6namFfwGdyIQSaphD7rVWz1NhRPVn8YYTXRI7wDldTUmTH8M8i7_uSj1mZ53hbxa31t1DmsrFyu6lLjOe04F8WFlyiw4gl8lPOSH6y8jmAbB9lXMomF4k33o5PfQVxaM8ikD3-5YKINe7gdKd8AYo_Lzpr7F-GdJtCBkDKkJjHH72Tcu-pKkdnbqqYL-S4qLFscYMxRbwkFstPkPCSxFlJrNvZDRPzyfDCzUmVbuNrrJqEV4MTmUFghqXV67WDe-L53XUJF-DJploicpDfolcoi5yQFFZziw9Yzjwqvzgj6g25Fb81MBMGxSNI6x3kqncawZQ3fjc6IYCvhxhZknqNpGmAheTly5OnNywqxJll7TbgRd6pIx1qjqSrr0aaWiYWig3jM7f2L81liK2z9x07yqBr7DtGPSYHZi_XftE2yRksr2B5TlIWZvW76Qxzulcc72i5S7wBJFrcJ_pEOMs12PIzPS9luR]--></g></svg>