<?xml version="1.0" encoding="us-ascii" standalone="no"?><svg xmlns="http://www.w3.org/2000/svg" xmlns:xlink="http://www.w3.org/1999/xlink" contentStyleType="text/css" height="1570px" preserveAspectRatio="none" style="width:1254px;height:1570px;background:#FFFFFF;" version="1.1" viewBox="0 0 1254 1570" width="1254px" zoomAndPan="magnify"><defs/><g><rect fill="#FFFFFF" height="1361.6777" style="stroke:#181818;stroke-width:1.0;" width="10" x="154.5" y="116.9121"/><rect fill="none" height="233.6191" style="stroke:#000000;stroke-width:1.5;" width="910" x="338" y="700.0234"/><rect fill="none" height="143.4551" style="stroke:#000000;stroke-width:1.5;" width="910" x="338" y="947.6426"/><rect fill="none" height="81.873" style="stroke:#000000;stroke-width:1.5;" width="910" x="338" y="1105.0977"/><rect fill="none" height="81.873" style="stroke:#000000;stroke-width:1.5;" width="910" x="338" y="1294.8438"/><line style="stroke:#181818;stroke-width:0.5;stroke-dasharray:5.0,5.0;" x1="32" x2="32" y1="83.6211" y2="1487.5898"/><line style="stroke:#181818;stroke-width:0.5;stroke-dasharray:5.0,5.0;" x1="159" x2="159" y1="83.6211" y2="1487.5898"/><line style="stroke:#181818;stroke-width:0.5;stroke-dasharray:5.0,5.0;" x1="377" x2="377" y1="83.6211" y2="1487.5898"/><line style="stroke:#181818;stroke-width:0.5;stroke-dasharray:5.0,5.0;" x1="640.5" x2="640.5" y1="83.6211" y2="1487.5898"/><line style="stroke:#181818;stroke-width:0.5;stroke-dasharray:5.0,5.0;" x1="925" x2="925" y1="83.6211" y2="1487.5898"/><line style="stroke:#181818;stroke-width:0.5;stroke-dasharray:5.0,5.0;" x1="1216" x2="1216" y1="83.6211" y2="1487.5898"/><text fill="#000000" font-family="sans-serif" font-size="14" lengthAdjust="spacing" textLength="49" x="5" y="80.1074">Android</text><ellipse cx="32.5" cy="13.5" fill="#008000" rx="8" ry="8" style="stroke:#181818;stroke-width:0.5;"/><path d="M32.5,21.5 L32.5,48.5 M19.5,29.5 L45.5,29.5 M32.5,48.5 L19.5,63.5 M32.5,48.5 L45.5,63.5 " fill="none" style="stroke:#181818;stroke-width:0.5;"/><text fill="#000000" font-family="sans-serif" font-size="14" lengthAdjust="spacing" textLength="49" x="5" y="1501.6973">Android</text><ellipse cx="32.5" cy="1513.7109" fill="#008000" rx="8" ry="8" style="stroke:#181818;stroke-width:0.5;"/><path d="M32.5,1521.7109 L32.5,1548.7109 M19.5,1529.7109 L45.5,1529.7109 M32.5,1548.7109 L19.5,1563.7109 M32.5,1548.7109 L45.5,1563.7109 " fill="none" style="stroke:#181818;stroke-width:0.5;"/><rect fill="#E2E2F0" height="32.6211" rx="2.5" ry="2.5" style="stroke:#181818;stroke-width:0.5;" width="111" x="104" y="50"/><text fill="#000000" font-family="sans-serif" font-size="14" lengthAdjust="spacing" textLength="97" x="111" y="72.1074">SceneRenderer</text><rect fill="#E2E2F0" height="32.6211" rx="2.5" ry="2.5" style="stroke:#181818;stroke-width:0.5;" width="111" x="104" y="1486.5898"/><text fill="#000000" font-family="sans-serif" font-size="14" lengthAdjust="spacing" textLength="97" x="111" y="1508.6973">SceneRenderer</text><rect fill="#E2E2F0" height="32.6211" rx="2.5" ry="2.5" style="stroke:#181818;stroke-width:0.5;" width="59" x="348" y="50"/><text fill="#000000" font-family="sans-serif" font-size="14" lengthAdjust="spacing" textLength="45" x="355" y="72.1074">Cuboid</text><rect fill="#E2E2F0" height="32.6211" rx="2.5" ry="2.5" style="stroke:#181818;stroke-width:0.5;" width="59" x="348" y="1486.5898"/><text fill="#000000" font-family="sans-serif" font-size="14" lengthAdjust="spacing" textLength="45" x="355" y="1508.6973">Cuboid</text><rect fill="#E2E2F0" height="32.6211" rx="2.5" ry="2.5" style="stroke:#181818;stroke-width:0.5;" width="88" x="596.5" y="50"/><text fill="#000000" font-family="sans-serif" font-size="14" lengthAdjust="spacing" textLength="74" x="603.5" y="72.1074">VertexArray</text><rect fill="#E2E2F0" height="32.6211" rx="2.5" ry="2.5" style="stroke:#181818;stroke-width:0.5;" width="88" x="596.5" y="1486.5898"/><text fill="#000000" font-family="sans-serif" font-size="14" lengthAdjust="spacing" textLength="74" x="603.5" y="1508.6973">VertexArray</text><rect fill="#E2E2F0" height="32.6211" rx="2.5" ry="2.5" style="stroke:#181818;stroke-width:0.5;" width="67" x="892" y="50"/><text fill="#000000" font-family="sans-serif" font-size="14" lengthAdjust="spacing" textLength="53" x="899" y="72.1074">GLES20</text><rect fill="#E2E2F0" height="32.6211" rx="2.5" ry="2.5" style="stroke:#181818;stroke-width:0.5;" width="67" x="892" y="1486.5898"/><text fill="#000000" font-family="sans-serif" font-size="14" lengthAdjust="spacing" textLength="53" x="899" y="1508.6973">GLES20</text><rect fill="#99FF99" height="32.6211" rx="2.5" ry="2.5" style="stroke:#181818;stroke-width:0.5;" width="43" x="1195" y="50"/><text fill="#000000" font-family="sans-serif" font-size="14" lengthAdjust="spacing" textLength="29" x="1202" y="72.1074">GPU</text><rect fill="#99FF99" height="32.6211" rx="2.5" ry="2.5" style="stroke:#181818;stroke-width:0.5;" width="43" x="1195" y="1486.5898"/><text fill="#000000" font-family="sans-serif" font-size="14" lengthAdjust="spacing" textLength="29" x="1202" y="1508.6973">GPU</text><rect fill="#FFFFFF" height="1361.6777" style="stroke:#181818;stroke-width:1.0;" width="10" x="154.5" y="116.9121"/><polygon fill="#181818" points="142.5,112.9121,152.5,116.9121,142.5,120.9121,146.5,116.9121" style="stroke:#181818;stroke-width:1.0;"/><line style="stroke:#181818;stroke-width:1.0;" x1="32.5" x2="148.5" y1="116.9121" y2="116.9121"/><text fill="#000000" font-family="sans-serif" font-size="13" lengthAdjust="spacing" textLength="103" x="39.5" y="111.6494">onSurfaceCreated</text><polygon fill="#181818" points="365.5,144.2031,375.5,148.2031,365.5,152.2031,369.5,148.2031" style="stroke:#181818;stroke-width:1.0;"/><line style="stroke:#181818;stroke-width:1.0;" x1="164.5" x2="371.5" y1="148.2031" y2="148.2031"/><text fill="#000000" font-family="sans-serif" font-size="13" lengthAdjust="spacing" textLength="189" x="171.5" y="142.9404">create Wall based on saved data</text><polygon fill="#181818" points="628.5,175.4941,638.5,179.4941,628.5,183.4941,632.5,179.4941" style="stroke:#181818;stroke-width:1.0;"/><line style="stroke:#181818;stroke-width:1.0;" x1="377.5" x2="634.5" y1="179.4941" y2="179.4941"/><text fill="#000000" font-family="sans-serif" font-size="13" lengthAdjust="spacing" textLength="165" x="384.5" y="174.2314">new VertexArray(vertexData)</text><line style="stroke:#181818;stroke-width:1.0;" x1="640.5" x2="682.5" y1="228.0762" y2="228.0762"/><line style="stroke:#181818;stroke-width:1.0;" x1="682.5" x2="682.5" y1="228.0762" y2="241.0762"/><line style="stroke:#181818;stroke-width:1.0;" x1="641.5" x2="682.5" y1="241.0762" y2="241.0762"/><polygon fill="#181818" points="651.5,237.0762,641.5,241.0762,651.5,245.0762,647.5,241.0762" style="stroke:#181818;stroke-width:1.0;"/><text fill="#000000" font-family="sans-serif" font-size="13" lengthAdjust="spacing" textLength="211" x="647.5" y="205.5225">allocate vertex data inside floatBuffer</text><text fill="#000000" font-family="sans-serif" font-size="13" lengthAdjust="spacing" textLength="87" x="651.5" y="222.8135">(vertices buffer)</text><line style="stroke:#181818;stroke-width:1.0;" x1="377.5" x2="419.5" y1="289.6582" y2="289.6582"/><line style="stroke:#181818;stroke-width:1.0;" x1="419.5" x2="419.5" y1="289.6582" y2="302.6582"/><line style="stroke:#181818;stroke-width:1.0;" x1="378.5" x2="419.5" y1="302.6582" y2="302.6582"/><polygon fill="#181818" points="388.5,298.6582,378.5,302.6582,388.5,306.6582,384.5,302.6582" style="stroke:#181818;stroke-width:1.0;"/><text fill="#000000" font-family="sans-serif" font-size="13" lengthAdjust="spacing" textLength="244" x="384.5" y="267.1045">create vertex sequence  for drawing Faces</text><text fill="#000000" font-family="sans-serif" font-size="13" lengthAdjust="spacing" textLength="159" x="388.5" y="284.3955">and allocate it in ByteBuffer</text><path d="M382,315.6582 L382,394.6582 L595,394.6582 L595,325.6582 L585,315.6582 L382,315.6582 " fill="#FEFFDD" style="stroke:#181818;stroke-width:0.5;"/><path d="M585,315.6582 L585,325.6582 L595,325.6582 L585,315.6582 " fill="#FEFFDD" style="stroke:#181818;stroke-width:0.5;"/><text fill="#000000" font-family="sans-serif" font-size="13" lengthAdjust="spacing" textLength="143" x="388" y="334.6865">OpenGL ES draws faces</text><text fill="#000000" font-family="sans-serif" font-size="13" lengthAdjust="spacing" textLength="153" x="388" y="351.9775">composed out of triangles.</text><text fill="#000000" font-family="sans-serif" font-size="13" lengthAdjust="spacing" textLength="111" x="388" y="369.2686">Cuboid has 6 faces</text><text fill="#000000" font-family="sans-serif" font-size="13" lengthAdjust="spacing" textLength="192" x="388" y="386.5596">Each has 2 triangles of 3 vertices</text><line style="stroke:#181818;stroke-width:1.0;" x1="377.5" x2="419.5" y1="440.4043" y2="440.4043"/><line style="stroke:#181818;stroke-width:1.0;" x1="419.5" x2="419.5" y1="440.4043" y2="453.4043"/><line style="stroke:#181818;stroke-width:1.0;" x1="378.5" x2="419.5" y1="453.4043" y2="453.4043"/><polygon fill="#181818" points="388.5,449.4043,378.5,453.4043,388.5,457.4043,384.5,453.4043" style="stroke:#181818;stroke-width:1.0;"/><text fill="#000000" font-family="sans-serif" font-size="13" lengthAdjust="spacing" textLength="241" x="384.5" y="417.8506">create vertex sequence for drawing Edges</text><text fill="#000000" font-family="sans-serif" font-size="13" lengthAdjust="spacing" textLength="159" x="388.5" y="435.1416">and allocate it in ByteBuffer</text><polygon fill="#181818" points="142.5,480.6953,152.5,484.6953,142.5,488.6953,146.5,484.6953" style="stroke:#181818;stroke-width:1.0;"/><line style="stroke:#181818;stroke-width:1.0;" x1="32.5" x2="148.5" y1="484.6953" y2="484.6953"/><text fill="#000000" font-family="sans-serif" font-size="13" lengthAdjust="spacing" textLength="80" x="39.5" y="479.4326">onDrawFrame</text><polygon fill="#181818" points="913.5,511.9863,923.5,515.9863,913.5,519.9863,917.5,515.9863" style="stroke:#181818;stroke-width:1.0;"/><line style="stroke:#181818;stroke-width:1.0;" x1="164.5" x2="919.5" y1="515.9863" y2="515.9863"/><text fill="#000000" font-family="sans-serif" font-size="13" lengthAdjust="spacing" textLength="185" x="171.5" y="510.7236">glUseProgram(programObjectId)</text><path d="M930,528.9863 L930,572.9863 L1229,572.9863 L1229,538.9863 L1219,528.9863 L930,528.9863 " fill="#FEFFDD" style="stroke:#181818;stroke-width:0.5;"/><path d="M1219,528.9863 L1219,538.9863 L1229,538.9863 L1219,528.9863 " fill="#FEFFDD" style="stroke:#181818;stroke-width:0.5;"/><text fill="#000000" font-family="sans-serif" font-size="13" lengthAdjust="spacing" textLength="278" x="936" y="548.0146">programObject consists of both fragment shader</text><text fill="#000000" font-family="sans-serif" font-size="13" lengthAdjust="spacing" textLength="102" x="940" y="565.3057">and vertex shader</text><polygon fill="#181818" points="1204.5,597.8594,1214.5,601.8594,1204.5,605.8594,1208.5,601.8594" style="stroke:#181818;stroke-width:1.0;"/><line style="stroke:#181818;stroke-width:1.0;" x1="925.5" x2="1210.5" y1="601.8594" y2="601.8594"/><text fill="#000000" font-family="sans-serif" font-size="13" lengthAdjust="spacing" textLength="123" x="932.5" y="596.5967">select programToRun</text><polygon fill="#181818" points="365.5,681.0234,375.5,685.0234,365.5,689.0234,369.5,685.0234" style="stroke:#181818;stroke-width:1.0;"/><line style="stroke:#181818;stroke-width:1.0;" x1="164.5" x2="371.5" y1="685.0234" y2="685.0234"/><text fill="#000000" font-family="sans-serif" font-size="13" lengthAdjust="spacing" textLength="138" x="171.5" y="627.8877">draw(aPositionLocation,</text><text fill="#000000" font-family="sans-serif" font-size="13" lengthAdjust="spacing" textLength="90" x="211.5" y="645.1787">uColorLocation,</text><text fill="#000000" font-family="sans-serif" font-size="13" lengthAdjust="spacing" textLength="96" x="211.5" y="662.4697">uMatrixLocation,</text><text fill="#000000" font-family="sans-serif" font-size="13" lengthAdjust="spacing" textLength="122" x="211.5" y="679.7607">viewProjectionMatrix)</text><path d="M338,700.0234 L720,700.0234 L720,709.3145 L710,719.3145 L338,719.3145 L338,700.0234 " fill="#EEEEEE" style="stroke:#000000;stroke-width:1.5;"/><rect fill="none" height="233.6191" style="stroke:#000000;stroke-width:1.5;" width="910" x="338" y="700.0234"/><text fill="#000000" font-family="sans-serif" font-size="13" font-weight="bold" lengthAdjust="spacing" textLength="337" x="353" y="715.0518">prepare DataSource for "attribute" variable of shader</text><polygon fill="#181818" points="628.5,738.6055,638.5,742.6055,628.5,746.6055,632.5,742.6055" style="stroke:#181818;stroke-width:1.0;"/><line style="stroke:#181818;stroke-width:1.0;" x1="377.5" x2="634.5" y1="742.6055" y2="742.6055"/><text fill="#000000" font-family="sans-serif" font-size="13" lengthAdjust="spacing" textLength="239" x="384.5" y="737.3428">setVertexAttribPointer(aPositionLocation)</text><polygon fill="#181818" points="913.5,787.1875,923.5,791.1875,913.5,795.1875,917.5,791.1875" style="stroke:#181818;stroke-width:1.0;"/><line style="stroke:#181818;stroke-width:1.0;" x1="640.5" x2="919.5" y1="791.1875" y2="791.1875"/><text fill="#000000" font-family="sans-serif" font-size="13" lengthAdjust="spacing" textLength="231" x="647.5" y="768.6338">glVertexAttribPointer(aPositionLocation,</text><text fill="#000000" font-family="sans-serif" font-size="13" lengthAdjust="spacing" textLength="83" x="791.5" y="785.9248">vertices buffer)</text><path d="M827,804.1875 L827,865.1875 L1023,865.1875 L1023,814.1875 L1013,804.1875 L827,804.1875 " fill="#FEFFDD" style="stroke:#181818;stroke-width:0.5;"/><path d="M1013,804.1875 L1013,814.1875 L1023,814.1875 L1013,804.1875 " fill="#FEFFDD" style="stroke:#181818;stroke-width:0.5;"/><text fill="#000000" font-family="sans-serif" font-size="13" lengthAdjust="spacing" textLength="103" x="833" y="823.2158">link vertices buffer</text><text fill="#000000" font-family="sans-serif" font-size="13" lengthAdjust="spacing" textLength="166" x="833" y="840.5068">as input source for 3D shape</text><text fill="#000000" font-family="sans-serif" font-size="13" lengthAdjust="spacing" textLength="175" x="833" y="857.7979">calculation inside GPU shader</text><polygon fill="#181818" points="913.5,890.3516,923.5,894.3516,913.5,898.3516,917.5,894.3516" style="stroke:#181818;stroke-width:1.0;"/><line style="stroke:#181818;stroke-width:1.0;" x1="640.5" x2="919.5" y1="894.3516" y2="894.3516"/><text fill="#000000" font-family="sans-serif" font-size="13" lengthAdjust="spacing" textLength="261" x="647.5" y="889.0889">glEnableVertexAttribArray(aPositionLocation)</text><polygon fill="#181818" points="1204.5,921.6426,1214.5,925.6426,1204.5,929.6426,1208.5,925.6426" style="stroke:#181818;stroke-width:1.0;"/><line style="stroke:#181818;stroke-width:1.0;" x1="925.5" x2="1210.5" y1="925.6426" y2="925.6426"/><text fill="#000000" font-family="sans-serif" font-size="13" lengthAdjust="spacing" textLength="236" x="932.5" y="920.3799">pass vertices buffer for aPositionLocation</text><path d="M338,947.6426 L629,947.6426 L629,956.9336 L619,966.9336 L338,966.9336 L338,947.6426 " fill="#EEEEEE" style="stroke:#000000;stroke-width:1.5;"/><rect fill="none" height="143.4551" style="stroke:#000000;stroke-width:1.5;" width="910" x="338" y="947.6426"/><text fill="#000000" font-family="sans-serif" font-size="13" font-weight="bold" lengthAdjust="spacing" textLength="246" x="353" y="962.6709">set "uniform" Matrix variable of shader</text><line style="stroke:#181818;stroke-width:1.0;" x1="377.5" x2="419.5" y1="1007.5156" y2="1007.5156"/><line style="stroke:#181818;stroke-width:1.0;" x1="419.5" x2="419.5" y1="1007.5156" y2="1020.5156"/><line style="stroke:#181818;stroke-width:1.0;" x1="378.5" x2="419.5" y1="1020.5156" y2="1020.5156"/><polygon fill="#181818" points="388.5,1016.5156,378.5,1020.5156,388.5,1024.5156,384.5,1020.5156" style="stroke:#181818;stroke-width:1.0;"/><text fill="#000000" font-family="sans-serif" font-size="13" lengthAdjust="spacing" textLength="201" x="384.5" y="984.9619">multiply world viewProjectionMatrix</text><text fill="#000000" font-family="sans-serif" font-size="13" lengthAdjust="spacing" textLength="192" x="384.5" y="1002.2529">with Cuboid internal model Matrix</text><polygon fill="#181818" points="913.5,1047.8066,923.5,1051.8066,913.5,1055.8066,917.5,1051.8066" style="stroke:#181818;stroke-width:1.0;"/><line style="stroke:#181818;stroke-width:1.0;" x1="377.5" x2="919.5" y1="1051.8066" y2="1051.8066"/><text fill="#000000" font-family="sans-serif" font-size="13" lengthAdjust="spacing" textLength="370" x="384.5" y="1046.5439">glUniformMatrix4fv(uMatrixLocation, modelViewProjectionMatrix)</text><polygon fill="#181818" points="1204.5,1079.0977,1214.5,1083.0977,1204.5,1087.0977,1208.5,1083.0977" style="stroke:#181818;stroke-width:1.0;"/><line style="stroke:#181818;stroke-width:1.0;" x1="925.5" x2="1210.5" y1="1083.0977" y2="1083.0977"/><text fill="#000000" font-family="sans-serif" font-size="13" lengthAdjust="spacing" textLength="252" x="932.5" y="1077.835">set current Matrix for 3D shapes calculation</text><path d="M338,1105.0977 L623,1105.0977 L623,1114.3887 L613,1124.3887 L338,1124.3887 L338,1105.0977 " fill="#EEEEEE" style="stroke:#000000;stroke-width:1.5;"/><rect fill="none" height="81.873" style="stroke:#000000;stroke-width:1.5;" width="910" x="338" y="1105.0977"/><text fill="#000000" font-family="sans-serif" font-size="13" font-weight="bold" lengthAdjust="spacing" textLength="240" x="353" y="1120.126">set "uniform" Color variable of shader</text><polygon fill="#181818" points="913.5,1143.6797,923.5,1147.6797,913.5,1151.6797,917.5,1147.6797" style="stroke:#181818;stroke-width:1.0;"/><line style="stroke:#181818;stroke-width:1.0;" x1="377.5" x2="919.5" y1="1147.6797" y2="1147.6797"/><text fill="#000000" font-family="sans-serif" font-size="13" lengthAdjust="spacing" textLength="224" x="384.5" y="1142.417">glUniform4f(uColorLocation, edgeColor)</text><polygon fill="#181818" points="1204.5,1174.9707,1214.5,1178.9707,1204.5,1182.9707,1208.5,1178.9707" style="stroke:#181818;stroke-width:1.0;"/><line style="stroke:#181818;stroke-width:1.0;" x1="925.5" x2="1210.5" y1="1178.9707" y2="1178.9707"/><text fill="#000000" font-family="sans-serif" font-size="13" lengthAdjust="spacing" textLength="141" x="932.5" y="1173.708">set current "active" color</text><polygon fill="#181818" points="913.5,1213.2617,923.5,1217.2617,913.5,1221.2617,917.5,1217.2617" style="stroke:#181818;stroke-width:1.0;"/><line style="stroke:#181818;stroke-width:1.0;" x1="377.5" x2="919.5" y1="1217.2617" y2="1217.2617"/><text fill="#000000" font-family="sans-serif" font-size="13" lengthAdjust="spacing" textLength="354" x="384.5" y="1211.999">glDrawElements(GL_LINES, 24 indexes, vertexIndexesBuffer)</text><polygon fill="#181818" points="1204.5,1244.5527,1214.5,1248.5527,1204.5,1252.5527,1208.5,1248.5527" style="stroke:#181818;stroke-width:1.0;"/><line style="stroke:#181818;stroke-width:1.0;" x1="925.5" x2="1210.5" y1="1248.5527" y2="1248.5527"/><text fill="#000000" font-family="sans-serif" font-size="13" lengthAdjust="spacing" textLength="245" x="932.5" y="1243.29">pass indexes of vertices to build lines from</text><polygon fill="#181818" points="1204.5,1275.8438,1214.5,1279.8438,1204.5,1283.8438,1208.5,1279.8438" style="stroke:#181818;stroke-width:1.0;"/><line style="stroke:#181818;stroke-width:1.0;" x1="925.5" x2="1210.5" y1="1279.8438" y2="1279.8438"/><text fill="#000000" font-family="sans-serif" font-size="13" lengthAdjust="spacing" textLength="155" x="932.5" y="1274.5811">draw lines of Cuboid edges</text><path d="M338,1294.8438 L623,1294.8438 L623,1304.1348 L613,1314.1348 L338,1314.1348 L338,1294.8438 " fill="#EEEEEE" style="stroke:#000000;stroke-width:1.5;"/><rect fill="none" height="81.873" style="stroke:#000000;stroke-width:1.5;" width="910" x="338" y="1294.8438"/><text fill="#000000" font-family="sans-serif" font-size="13" font-weight="bold" lengthAdjust="spacing" textLength="240" x="353" y="1309.8721">set "uniform" Color variable of shader</text><polygon fill="#181818" points="913.5,1333.4258,923.5,1337.4258,913.5,1341.4258,917.5,1337.4258" style="stroke:#181818;stroke-width:1.0;"/><line style="stroke:#181818;stroke-width:1.0;" x1="377.5" x2="919.5" y1="1337.4258" y2="1337.4258"/><text fill="#000000" font-family="sans-serif" font-size="13" lengthAdjust="spacing" textLength="220" x="384.5" y="1332.1631">glUniform4f(uColorLocation, faceColor)</text><polygon fill="#181818" points="1204.5,1364.7168,1214.5,1368.7168,1204.5,1372.7168,1208.5,1368.7168" style="stroke:#181818;stroke-width:1.0;"/><line style="stroke:#181818;stroke-width:1.0;" x1="925.5" x2="1210.5" y1="1368.7168" y2="1368.7168"/><text fill="#000000" font-family="sans-serif" font-size="13" lengthAdjust="spacing" textLength="141" x="932.5" y="1363.4541">set current "active" color</text><polygon fill="#181818" points="913.5,1403.0078,923.5,1407.0078,913.5,1411.0078,917.5,1407.0078" style="stroke:#181818;stroke-width:1.0;"/><line style="stroke:#181818;stroke-width:1.0;" x1="377.5" x2="919.5" y1="1407.0078" y2="1407.0078"/><text fill="#000000" font-family="sans-serif" font-size="13" lengthAdjust="spacing" textLength="389" x="384.5" y="1401.7451">glDrawElements(GL_TRIANGLES, 36 indexes, vertexIndexesBuffer)</text><polygon fill="#181818" points="1204.5,1434.2988,1214.5,1438.2988,1204.5,1442.2988,1208.5,1438.2988" style="stroke:#181818;stroke-width:1.0;"/><line style="stroke:#181818;stroke-width:1.0;" x1="925.5" x2="1210.5" y1="1438.2988" y2="1438.2988"/><text fill="#000000" font-family="sans-serif" font-size="13" lengthAdjust="spacing" textLength="267" x="932.5" y="1433.0361">pass indexes of vertices to build triangles from</text><polygon fill="#181818" points="1204.5,1465.5898,1214.5,1469.5898,1204.5,1473.5898,1208.5,1469.5898" style="stroke:#181818;stroke-width:1.0;"/><line style="stroke:#181818;stroke-width:1.0;" x1="925.5" x2="1210.5" y1="1469.5898" y2="1469.5898"/><text fill="#000000" font-family="sans-serif" font-size="13" lengthAdjust="spacing" textLength="173" x="932.5" y="1464.3271">draw triangles of Cuboid faces</text><!--SRC=[jLR9Rjim4BtpAmREnG7Ieas20l6XG1Od2E2sHjoqbm05BOrajZIfafIT_7s7Ys99jeEWQ7sHICxotfiPoZnpsa3ydQlSQ96d5RVDndiuA0sYOXKtJcIYuih1fwURoHsg70qQRzjUTmmlwxaFIYRnhNFu3Ot3ntDZ-9EtQ2qxPZUJyUpudRU8Rzt3wNqueSV1sTdrzTaPOy_8ttpi81k1LhFQ53p3IuFSOSvuviIAtheCElGeICG-WYnumNSk9SovnPm2WkKhUicvuoon9OyMbn4eNBStXglmVaKUXwojGT-FqkZC9umE8GS8PKMEK4ZDtKLT58JmGK68AJAqC0zxXwm5fWS_HRFukqQL8K11JP0RlXQgX6lkWr14hl8D0E4eBrmyEOmfcTAqQqIvQ4hClbIeRYOmdeLG5hpAbcLwMUaWLEr05-2CuAgKQDys-1PKlG_9UiopHTWutXXwhnDew36g2lZahwVNPZVEozUmUx63hYZMjU5BP5jz4ljp1AMyjpWrkYIpOHMVN-O_CNEt-M5RkwQXsoQGQIgnTO7vNBi558QNIwHcjmjEkLX0tz2CMy-of67nOARt8r91-f0fmLTzLoksjxszIaC-rLOueTN4YqFF8vBh-LTVQgdDxgDFd8hskFDi9N1DUdXwT1GD3rbfT5qHDgI1Hl3pCDErIIKRS4TMyzhX05QSkc4kqIkI2EyPDOikhOFtL0lbq6oJsXgyJUbUvTzXj_-tDPMXzfgscz9BeNxrpHXDW50LJOpTw75ovQbNo38kire65Crbu6-_VYFivJTMNiesotWhxT2erqmLjxQFDM3RSlKmMAelbGG6jH9ak1n0hFtB5MtwSLbB9ohv16jjPBwpYHxKMj249DzGBCKbB7MECkLg1MxDPyGJBKwBrR3VlJ74jvrzkpLZDBErCNv24xrsmIoqAhPVc31OB-ko1V-q6FO64f1kkB3r8in1-ExHP6NUD8BQbSVVTME9_lAnmvl9Zydjv_7i28vFIUeS7z4UfNleDYulKfllQfpauPazzv3Jr4Q2QajZGCl2w6NVrrzAwPWy4qZFqlvN7SEVXB_IyLL2VhsxFV_iZu_WvCE_5dFpxTmhQEVpcW27R_0V]--></g></svg>