<svg xmlns="http://www.w3.org/2000/svg" xmlns:xlink="http://www.w3.org/1999/xlink" contentStyleType="text/css" height="1303px" preserveAspectRatio="none" style="width:1070px;height:1303px;background:#FFFFFF;" version="1.1" viewBox="0 0 1070 1303" width="1070px" zoomAndPan="magnify"><defs/><g><rect fill="#FFFFFF" height="1101.4453" style="stroke:#181818;stroke-width:1.0;" width="10" x="176.668" y="112.4297"/><rect fill="none" height="340.125" style="stroke:#000000;stroke-width:1.5;" width="534.5825" x="110.9067" y="127.4297"/><rect fill="none" height="489.2578" style="stroke:#000000;stroke-width:1.5;" width="953.3838" x="110.9067" y="510.6875"/><rect fill="none" height="133.6641" style="stroke:#000000;stroke-width:1.5;" width="396.8857" x="548.5508" y="563.9531"/><rect fill="none" height="46.2656" style="stroke:#000000;stroke-width:1.5;" width="396.8857" x="548.5508" y="711.6172"/><rect fill="none" height="191.9297" style="stroke:#000000;stroke-width:1.5;" width="505.7397" x="548.5508" y="771.8828"/><rect fill="none" height="191.9297" style="stroke:#000000;stroke-width:1.5;" width="943.3838" x="110.9067" y="1013.9453"/><line style="stroke:#181818;stroke-width:0.5;stroke-dasharray:5.0,5.0;" x1="35" x2="35" y1="81.2969" y2="1222.875"/><line style="stroke:#181818;stroke-width:0.5;stroke-dasharray:5.0,5.0;" x1="180.9067" x2="180.9067" y1="81.2969" y2="1222.875"/><line style="stroke:#181818;stroke-width:0.5;stroke-dasharray:5.0,5.0;" x1="502.8994" x2="502.8994" y1="81.2969" y2="1222.875"/><line style="stroke:#181818;stroke-width:0.5;stroke-dasharray:5.0,5.0;" x1="648.5508" x2="648.5508" y1="81.2969" y2="1222.875"/><line style="stroke:#181818;stroke-width:0.5;stroke-dasharray:5.0,5.0;" x1="901.2412" x2="901.2412" y1="81.2969" y2="1222.875"/><line style="stroke:#181818;stroke-width:0.5;stroke-dasharray:5.0,5.0;" x1="1021.7524" x2="1021.7524" y1="81.2969" y2="1222.875"/><text fill="#000000" font-family="sans-serif" font-size="14" lengthAdjust="spacing" textLength="54.4346" x="5" y="77.9951">Android</text><ellipse cx="35.2173" cy="13.5" fill="#008000" rx="8" ry="8" style="stroke:#181818;stroke-width:0.5;"/><path d="M35.2173,21.5 L35.2173,48.5 M22.2173,29.5 L48.2173,29.5 M35.2173,48.5 L22.2173,63.5 M35.2173,48.5 L48.2173,63.5 " fill="none" style="stroke:#181818;stroke-width:0.5;"/><text fill="#000000" font-family="sans-serif" font-size="14" lengthAdjust="spacing" textLength="54.4346" x="5" y="1234.8701">Android</text><ellipse cx="35.2173" cy="1246.6719" fill="#008000" rx="8" ry="8" style="stroke:#181818;stroke-width:0.5;"/><path d="M35.2173,1254.6719 L35.2173,1281.6719 M22.2173,1262.6719 L48.2173,1262.6719 M35.2173,1281.6719 L22.2173,1296.6719 M35.2173,1281.6719 L48.2173,1296.6719 " fill="none" style="stroke:#181818;stroke-width:0.5;"/><rect fill="#E2E2F0" height="30.2969" rx="2.5" ry="2.5" style="stroke:#181818;stroke-width:0.5;" width="121.5225" x="120.9067" y="50"/><text fill="#000000" font-family="sans-serif" font-size="14" lengthAdjust="spacing" textLength="107.5225" x="127.9067" y="69.9951">SceneRenderer</text><rect fill="#E2E2F0" height="30.2969" rx="2.5" ry="2.5" style="stroke:#181818;stroke-width:0.5;" width="121.5225" x="120.9067" y="1221.875"/><text fill="#000000" font-family="sans-serif" font-size="14" lengthAdjust="spacing" textLength="107.5225" x="127.9067" y="1241.8701">SceneRenderer</text><rect fill="#E2E2F0" height="30.2969" rx="2.5" ry="2.5" style="stroke:#181818;stroke-width:0.5;" width="90.6514" x="457.8994" y="50"/><text fill="#000000" font-family="sans-serif" font-size="14" lengthAdjust="spacing" textLength="76.6514" x="464.8994" y="69.9951">FileSystem</text><rect fill="#E2E2F0" height="30.2969" rx="2.5" ry="2.5" style="stroke:#181818;stroke-width:0.5;" width="90.6514" x="457.8994" y="1221.875"/><text fill="#000000" font-family="sans-serif" font-size="14" lengthAdjust="spacing" textLength="76.6514" x="464.8994" y="1241.8701">FileSystem</text><rect fill="#E2E2F0" height="30.2969" rx="2.5" ry="2.5" style="stroke:#181818;stroke-width:0.5;" width="180.0244" x="558.5508" y="50"/><text fill="#000000" font-family="sans-serif" font-size="14" lengthAdjust="spacing" textLength="166.0244" x="565.5508" y="69.9951">ShadersProgramBuilder</text><rect fill="#E2E2F0" height="30.2969" rx="2.5" ry="2.5" style="stroke:#181818;stroke-width:0.5;" width="180.0244" x="558.5508" y="1221.875"/><text fill="#000000" font-family="sans-serif" font-size="14" lengthAdjust="spacing" textLength="166.0244" x="565.5508" y="1241.8701">ShadersProgramBuilder</text><rect fill="#E2E2F0" height="30.2969" rx="2.5" ry="2.5" style="stroke:#181818;stroke-width:0.5;" width="68.1953" x="867.2412" y="50"/><text fill="#000000" font-family="sans-serif" font-size="14" lengthAdjust="spacing" textLength="54.1953" x="874.2412" y="69.9951">GLES20</text><rect fill="#E2E2F0" height="30.2969" rx="2.5" ry="2.5" style="stroke:#181818;stroke-width:0.5;" width="68.1953" x="867.2412" y="1221.875"/><text fill="#000000" font-family="sans-serif" font-size="14" lengthAdjust="spacing" textLength="54.1953" x="874.2412" y="1241.8701">GLES20</text><rect fill="#99FF99" height="30.2969" rx="2.5" ry="2.5" style="stroke:#181818;stroke-width:0.5;" width="43.5381" x="1000.7524" y="50"/><text fill="#000000" font-family="sans-serif" font-size="14" lengthAdjust="spacing" textLength="29.5381" x="1007.7524" y="69.9951">GPU</text><rect fill="#99FF99" height="30.2969" rx="2.5" ry="2.5" style="stroke:#181818;stroke-width:0.5;" width="43.5381" x="1000.7524" y="1221.875"/><text fill="#000000" font-family="sans-serif" font-size="14" lengthAdjust="spacing" textLength="29.5381" x="1007.7524" y="1241.8701">GPU</text><rect fill="#FFFFFF" height="1101.4453" style="stroke:#181818;stroke-width:1.0;" width="10" x="176.668" y="112.4297"/><polygon fill="#181818" points="164.668,108.4297,174.668,112.4297,164.668,116.4297,168.668,112.4297" style="stroke:#181818;stroke-width:1.0;"/><line style="stroke:#181818;stroke-width:1.0;" x1="35.2173" x2="170.668" y1="112.4297" y2="112.4297"/><text fill="#000000" font-family="sans-serif" font-size="13" lengthAdjust="spacing" textLength="26.8696" x="42.2173" y="107.3638">new</text><path d="M110.9067,127.4297 L315.6709,127.4297 L315.6709,134.5625 L305.6709,144.5625 L110.9067,144.5625 L110.9067,127.4297 " fill="#EEEEEE" style="stroke:#000000;stroke-width:1.5;"/><rect fill="none" height="340.125" style="stroke:#000000;stroke-width:1.5;" width="534.5825" x="110.9067" y="127.4297"/><text fill="#000000" font-family="sans-serif" font-size="13" font-weight="bold" lengthAdjust="spacing" textLength="159.7642" x="125.9067" y="140.4966">Load OpenGL shaders</text><polygon fill="#181818" points="491.2251,161.6953,501.2251,165.6953,491.2251,169.6953,495.2251,165.6953" style="stroke:#181818;stroke-width:1.0;"/><line style="stroke:#181818;stroke-width:1.0;" x1="186.668" x2="497.2251" y1="165.6953" y2="165.6953"/><text fill="#000000" font-family="sans-serif" font-size="13" lengthAdjust="spacing" textLength="274.2441" x="193.668" y="160.6294">readTextFileContent(color_vertex_shader)</text><path d="M369,178.6953 L369,278.6953 L635,278.6953 L635,188.6953 L625,178.6953 L369,178.6953 " fill="#FEFFDD" style="stroke:#181818;stroke-width:0.5;"/><path d="M625,178.6953 L625,188.6953 L635,188.6953 L625,178.6953 " fill="#FEFFDD" style="stroke:#181818;stroke-width:0.5;"/><text fill="#000000" font-family="sans-serif" font-size="13" lengthAdjust="spacing" textLength="152.9404" x="375" y="195.7622">uniform mat4 u_Matrix;</text><text fill="#000000" font-family="sans-serif" font-size="13" lengthAdjust="spacing" textLength="166.0039" x="375" y="210.895">attribute vec4 a_Position;</text><text fill="#000000" font-family="sans-serif" font-size="13" lengthAdjust="spacing" textLength="74.2676" x="375" y="226.0278">void main()</text><text fill="#000000" font-family="sans-serif" font-size="13" lengthAdjust="spacing" textLength="8.271" x="375" y="241.1606">{</text><text fill="#000000" font-family="sans-serif" font-size="13" lengthAdjust="spacing" textLength="228.96" x="391.5293" y="256.2935">gl_Position = u_Matrix * a_Position;</text><text fill="#000000" font-family="sans-serif" font-size="13" lengthAdjust="spacing" textLength="8.271" x="375" y="271.4263">}</text><polygon fill="#181818" points="197.668,301.625,187.668,305.625,197.668,309.625,193.668,305.625" style="stroke:#181818;stroke-width:1.0;"/><line style="stroke:#181818;stroke-width:1.0;" x1="191.668" x2="502.2251" y1="305.625" y2="305.625"/><text fill="#000000" font-family="sans-serif" font-size="13" lengthAdjust="spacing" textLength="121.1577" x="203.668" y="300.5591">vertexShaderCode</text><polygon fill="#181818" points="491.2251,330.7578,501.2251,334.7578,491.2251,338.7578,495.2251,334.7578" style="stroke:#181818;stroke-width:1.0;"/><line style="stroke:#181818;stroke-width:1.0;" x1="186.668" x2="497.2251" y1="334.7578" y2="334.7578"/><text fill="#000000" font-family="sans-serif" font-size="13" lengthAdjust="spacing" textLength="292.5571" x="193.668" y="329.6919">readTextFileContent(color_fragment_shader)</text><path d="M407,347.7578 L407,432.7578 L598,432.7578 L598,357.7578 L588,347.7578 L407,347.7578 " fill="#00FFFF" style="stroke:#181818;stroke-width:0.5;"/><path d="M588,347.7578 L588,357.7578 L598,357.7578 L588,347.7578 " fill="#00FFFF" style="stroke:#181818;stroke-width:0.5;"/><text fill="#000000" font-family="sans-serif" font-size="13" lengthAdjust="spacing" textLength="143.0635" x="413" y="364.8247">uniform vec4 u_Color;</text><text fill="#000000" font-family="sans-serif" font-size="13" lengthAdjust="spacing" textLength="74.2676" x="413" y="379.9575">void main()</text><text fill="#000000" font-family="sans-serif" font-size="13" lengthAdjust="spacing" textLength="8.271" x="413" y="395.0903">{</text><text fill="#000000" font-family="sans-serif" font-size="13" lengthAdjust="spacing" textLength="153.5625" x="429.5293" y="410.2231">gl_FragColor = u_Color;</text><text fill="#000000" font-family="sans-serif" font-size="13" lengthAdjust="spacing" textLength="8.271" x="413" y="425.356">}</text><polygon fill="#181818" points="197.668,455.5547,187.668,459.5547,197.668,463.5547,193.668,459.5547" style="stroke:#181818;stroke-width:1.0;"/><line style="stroke:#181818;stroke-width:1.0;" x1="191.668" x2="502.2251" y1="459.5547" y2="459.5547"/><text fill="#000000" font-family="sans-serif" font-size="13" lengthAdjust="spacing" textLength="139.4707" x="203.668" y="454.4888">fragmentShaderCode</text><polygon fill="#181818" points="164.668,491.6875,174.668,495.6875,164.668,499.6875,168.668,495.6875" style="stroke:#181818;stroke-width:1.0;"/><line style="stroke:#181818;stroke-width:1.0;" x1="35.2173" x2="170.668" y1="495.6875" y2="495.6875"/><text fill="#000000" font-family="sans-serif" font-size="13" lengthAdjust="spacing" textLength="117.4507" x="42.2173" y="490.6216">onSurfaceCreated</text><path d="M110.9067,510.6875 L607.9995,510.6875 L607.9995,517.8203 L597.9995,527.8203 L110.9067,527.8203 L110.9067,510.6875 " fill="#EEEEEE" style="stroke:#000000;stroke-width:1.5;"/><rect fill="none" height="489.2578" style="stroke:#000000;stroke-width:1.5;" width="953.3838" x="110.9067" y="510.6875"/><text fill="#000000" font-family="sans-serif" font-size="13" font-weight="bold" lengthAdjust="spacing" textLength="452.0928" x="125.9067" y="523.7544">Compile shaders &amp; link them into "Program" to be run at GPU</text><polygon fill="#181818" points="636.563,544.9531,646.563,548.9531,636.563,552.9531,640.563,548.9531" style="stroke:#181818;stroke-width:1.0;"/><line style="stroke:#181818;stroke-width:1.0;" x1="186.668" x2="642.563" y1="548.9531" y2="548.9531"/><text fill="#000000" font-family="sans-serif" font-size="13" lengthAdjust="spacing" textLength="366.3677" x="193.668" y="543.8872">buildProgram(vertexShaderCode, fragmentShaderCode)</text><path d="M548.5508,563.9531 L760.6592,563.9531 L760.6592,571.0859 L750.6592,581.0859 L548.5508,581.0859 L548.5508,563.9531 " fill="#EEEEEE" style="stroke:#000000;stroke-width:1.5;"/><rect fill="none" height="133.6641" style="stroke:#000000;stroke-width:1.5;" width="396.8857" x="548.5508" y="563.9531"/><text fill="#000000" font-family="sans-serif" font-size="13" font-weight="bold" lengthAdjust="spacing" textLength="167.1084" x="563.5508" y="577.02">Compile Vertex shader</text><polygon fill="#181818" points="889.3389,598.2188,899.3389,602.2188,889.3389,606.2188,893.3389,602.2188" style="stroke:#181818;stroke-width:1.0;"/><line style="stroke:#181818;stroke-width:1.0;" x1="648.563" x2="895.3389" y1="602.2188" y2="602.2188"/><text fill="#000000" font-family="sans-serif" font-size="13" lengthAdjust="spacing" textLength="101.3975" x="655.563" y="597.1528">glCreateShader</text><polygon fill="#181818" points="889.3389,627.3516,899.3389,631.3516,889.3389,635.3516,893.3389,631.3516" style="stroke:#181818;stroke-width:1.0;"/><line style="stroke:#181818;stroke-width:1.0;" x1="648.563" x2="895.3389" y1="631.3516" y2="631.3516"/><text fill="#000000" font-family="sans-serif" font-size="13" lengthAdjust="spacing" textLength="102.8511" x="655.563" y="626.2856">glShaderSource</text><polygon fill="#181818" points="889.3389,656.4844,899.3389,660.4844,889.3389,664.4844,893.3389,660.4844" style="stroke:#181818;stroke-width:1.0;"/><line style="stroke:#181818;stroke-width:1.0;" x1="648.563" x2="895.3389" y1="660.4844" y2="660.4844"/><text fill="#000000" font-family="sans-serif" font-size="13" lengthAdjust="spacing" textLength="111.084" x="655.563" y="655.4185">glCompileShader</text><polygon fill="#181818" points="659.563,685.6172,649.563,689.6172,659.563,693.6172,655.563,689.6172" style="stroke:#181818;stroke-width:1.0;"/><line style="stroke:#181818;stroke-width:1.0;" x1="653.563" x2="900.3389" y1="689.6172" y2="689.6172"/><text fill="#000000" font-family="sans-serif" font-size="13" lengthAdjust="spacing" textLength="99.9629" x="665.563" y="684.5513">vertexShaderId</text><path d="M548.5508,711.6172 L783.1553,711.6172 L783.1553,718.75 L773.1553,728.75 L548.5508,728.75 L548.5508,711.6172 " fill="#EEEEEE" style="stroke:#000000;stroke-width:1.5;"/><rect fill="none" height="46.2656" style="stroke:#000000;stroke-width:1.5;" width="396.8857" x="548.5508" y="711.6172"/><text fill="#000000" font-family="sans-serif" font-size="13" font-weight="bold" lengthAdjust="spacing" textLength="189.6045" x="563.5508" y="724.6841">Compile Fragment shader</text><polygon fill="#181818" points="659.563,745.8828,649.563,749.8828,659.563,753.8828,655.563,749.8828" style="stroke:#181818;stroke-width:1.0;"/><line style="stroke:#181818;stroke-width:1.0;" x1="653.563" x2="900.3389" y1="749.8828" y2="749.8828"/><text fill="#000000" font-family="sans-serif" font-size="13" lengthAdjust="spacing" textLength="118.2759" x="665.563" y="744.8169">fragmentShaderId</text><path d="M548.5508,771.8828 L753.5308,771.8828 L753.5308,779.0156 L743.5308,789.0156 L548.5508,789.0156 L548.5508,771.8828 " fill="#EEEEEE" style="stroke:#000000;stroke-width:1.5;"/><rect fill="none" height="191.9297" style="stroke:#000000;stroke-width:1.5;" width="505.7397" x="548.5508" y="771.8828"/><text fill="#000000" font-family="sans-serif" font-size="13" font-weight="bold" lengthAdjust="spacing" textLength="159.98" x="563.5508" y="784.9497">Link OpenGL Program</text><polygon fill="#181818" points="889.3389,806.1484,899.3389,810.1484,889.3389,814.1484,893.3389,810.1484" style="stroke:#181818;stroke-width:1.0;"/><line style="stroke:#181818;stroke-width:1.0;" x1="648.563" x2="895.3389" y1="810.1484" y2="810.1484"/><text fill="#000000" font-family="sans-serif" font-size="13" lengthAdjust="spacing" textLength="110.7095" x="655.563" y="805.0825">glCreateProgram</text><polygon fill="#181818" points="889.3389,835.2813,899.3389,839.2813,889.3389,843.2813,893.3389,839.2813" style="stroke:#181818;stroke-width:1.0;"/><line style="stroke:#181818;stroke-width:1.0;" x1="648.563" x2="895.3389" y1="839.2813" y2="839.2813"/><text fill="#000000" font-family="sans-serif" font-size="13" lengthAdjust="spacing" textLength="210.4629" x="655.563" y="834.2153">glAttachShader(vertexShaderId)</text><polygon fill="#181818" points="889.3389,864.4141,899.3389,868.4141,889.3389,872.4141,893.3389,868.4141" style="stroke:#181818;stroke-width:1.0;"/><line style="stroke:#181818;stroke-width:1.0;" x1="648.563" x2="895.3389" y1="868.4141" y2="868.4141"/><text fill="#000000" font-family="sans-serif" font-size="13" lengthAdjust="spacing" textLength="228.7759" x="655.563" y="863.3481">glAttachShader(fragmentShaderId)</text><polygon fill="#181818" points="889.3389,893.5469,899.3389,897.5469,889.3389,901.5469,893.3389,897.5469" style="stroke:#181818;stroke-width:1.0;"/><line style="stroke:#181818;stroke-width:1.0;" x1="648.563" x2="895.3389" y1="897.5469" y2="897.5469"/><text fill="#000000" font-family="sans-serif" font-size="13" lengthAdjust="spacing" textLength="93.8501" x="655.563" y="892.481">glLinkProgram</text><polygon fill="#181818" points="1010.5215,922.6797,1020.5215,926.6797,1010.5215,930.6797,1014.5215,926.6797" style="stroke:#181818;stroke-width:1.0;"/><line style="stroke:#181818;stroke-width:1.0;" x1="901.3389" x2="1016.5215" y1="926.6797" y2="926.6797"/><text fill="#000000" font-family="sans-serif" font-size="13" lengthAdjust="spacing" textLength="97.1826" x="908.3389" y="921.6138">programToRun</text><polygon fill="#181818" points="659.563,951.8125,649.563,955.8125,659.563,959.8125,655.563,955.8125" style="stroke:#181818;stroke-width:1.0;"/><line style="stroke:#181818;stroke-width:1.0;" x1="653.563" x2="900.3389" y1="955.8125" y2="955.8125"/><text fill="#000000" font-family="sans-serif" font-size="13" lengthAdjust="spacing" textLength="110.2017" x="665.563" y="950.7466">programObjectId</text><polygon fill="#181818" points="197.668,987.9453,187.668,991.9453,197.668,995.9453,193.668,991.9453" style="stroke:#181818;stroke-width:1.0;"/><line style="stroke:#181818;stroke-width:1.0;" x1="191.668" x2="647.563" y1="991.9453" y2="991.9453"/><text fill="#000000" font-family="sans-serif" font-size="13" lengthAdjust="spacing" textLength="110.2017" x="203.668" y="986.8794">programObjectId</text><path d="M110.9067,1013.9453 L558.3228,1013.9453 L558.3228,1021.0781 L548.3228,1031.0781 L110.9067,1031.0781 L110.9067,1013.9453 " fill="#EEEEEE" style="stroke:#000000;stroke-width:1.5;"/><rect fill="none" height="191.9297" style="stroke:#000000;stroke-width:1.5;" width="943.3838" x="110.9067" y="1013.9453"/><text fill="#000000" font-family="sans-serif" font-size="13" font-weight="bold" lengthAdjust="spacing" textLength="402.416" x="125.9067" y="1027.0122">Retrieve "handles" of shader variables residing at GPU</text><polygon fill="#181818" points="889.3389,1048.2109,899.3389,1052.2109,889.3389,1056.2109,893.3389,1052.2109" style="stroke:#181818;stroke-width:1.0;"/><line style="stroke:#181818;stroke-width:1.0;" x1="186.668" x2="895.3389" y1="1052.2109" y2="1052.2109"/><text fill="#000000" font-family="sans-serif" font-size="13" lengthAdjust="spacing" textLength="320.6963" x="193.668" y="1047.145">glGetAttribLocation(programObjectId, a_Position)</text><polygon fill="#181818" points="197.668,1077.3438,187.668,1081.3438,197.668,1085.3438,193.668,1081.3438" style="stroke:#181818;stroke-width:1.0;"/><line style="stroke:#181818;stroke-width:1.0;" x1="191.668" x2="1021.5215" y1="1081.3438" y2="1081.3438"/><text fill="#000000" font-family="sans-serif" font-size="13" lengthAdjust="spacing" textLength="114.2578" x="203.668" y="1076.2778">aPositionLocation</text><polygon fill="#181818" points="889.3389,1106.4766,899.3389,1110.4766,889.3389,1114.4766,893.3389,1110.4766" style="stroke:#181818;stroke-width:1.0;"/><line style="stroke:#181818;stroke-width:1.0;" x1="186.668" x2="895.3389" y1="1110.4766" y2="1110.4766"/><text fill="#000000" font-family="sans-serif" font-size="13" lengthAdjust="spacing" textLength="326.4282" x="193.668" y="1105.4106">glGetUniformLocation(programObjectId, u_Matrix)</text><polygon fill="#181818" points="197.668,1135.6094,187.668,1139.6094,197.668,1143.6094,193.668,1139.6094" style="stroke:#181818;stroke-width:1.0;"/><line style="stroke:#181818;stroke-width:1.0;" x1="191.668" x2="1021.5215" y1="1139.6094" y2="1139.6094"/><text fill="#000000" font-family="sans-serif" font-size="13" lengthAdjust="spacing" textLength="104.3809" x="203.668" y="1134.5435">uMatrixLocation</text><polygon fill="#181818" points="889.3389,1164.7422,899.3389,1168.7422,889.3389,1172.7422,893.3389,1168.7422" style="stroke:#181818;stroke-width:1.0;"/><line style="stroke:#181818;stroke-width:1.0;" x1="186.668" x2="895.3389" y1="1168.7422" y2="1168.7422"/><text fill="#000000" font-family="sans-serif" font-size="13" lengthAdjust="spacing" textLength="319.4395" x="193.668" y="1163.6763">glGetUniformLocation(programObjectId, u_Color)</text><polygon fill="#181818" points="197.668,1193.875,187.668,1197.875,197.668,1201.875,193.668,1197.875" style="stroke:#181818;stroke-width:1.0;"/><line style="stroke:#181818;stroke-width:1.0;" x1="191.668" x2="1021.5215" y1="1197.875" y2="1197.875"/><text fill="#000000" font-family="sans-serif" font-size="13" lengthAdjust="spacing" textLength="97.3921" x="203.668" y="1192.8091">uColorLocation</text><!--SRC=[fLHBZzCm4BxxLunQ2RLeaG3jfLs1L2fQ8HLjrUnohQR9D3KaTd2SK8Juxsl7IJP9dmkzf1xFpFUmFUXhgS3z9Y9GaWVb2jCgy0xweI8IZDM1Dn_1yqdGYaH0YjGO1FrYw6kUewRs7WkLp19OI0pWFY4nNq2wGxELibQURJhZ4Nc_Kqtn61HXy41xRMDJAJG9FV1b9DKw9wLfltPTXan80obDi57ECi6tKiKGexw5RFqLjUBxEuRQV3UPASZ9lmLSBsNADPVYZkLMUunS38Ri3xCMX56z3H_g9l2wLVQN6VvWER1d-2C6ET9UmNag0_fNyLk5OMoMP-L37tzcM9jGQCtMKzlWXD2PQLli5qhBp6krLPmQwcpbsGiZXPUfBVeqDLercMHtJwOoJWnMTKVW5KHS_02zCyXSQ0czfPAXmhW7Ph4XK9a0r31VFXvQwWYbPSMdZ4U1nTxOFsLmq3sOcoDoXbrstugYaYGx2cFnvulFtlktOsEmK-bTdUzIF9afdwxgxuYL02v-ne6cw2z1SLXjWRFIWqhYnOvjqygUrTkt9rY-_RBkUizUK33H6lsTInoq9GvVNDyLT5K7gxGYdA3ItES9Yk9ssebgF_tHQ3ORZHgEckWO4bVr85UPkEnscNs_-Kw-him-oQ_pzBh5pQDQaPbnb1FqTYY2YD8Uo6rv2I17nN5ZWcO-fJpW8gnUtk7JU_PaJdfIZDs5zD4EpK67m4rZe0wPzUYGCrO9LPCBY8zkz9s6hCRvAS3CRTTm_uzN3DMJSCLkZMRYJm00]--></g></svg>