<svg xmlns="http://www.w3.org/2000/svg" xmlns:xlink="http://www.w3.org/1999/xlink" contentStyleType="text/css" height="1174px" preserveAspectRatio="none" style="width:1204px;height:1174px;background:#FFFFFF;" version="1.1" viewBox="0 0 1204 1174" width="1204px" zoomAndPan="magnify"><defs/><g><rect fill="#FFFFFF" height="972.5156" style="stroke:#181818;stroke-width:1.0;" width="10" x="171.668" y="112.4297"/><rect fill="none" height="169.9297" style="stroke:#000000;stroke-width:1.5;" width="859.0049" x="339.7583" y="552.4219"/><rect fill="none" height="132.6641" style="stroke:#000000;stroke-width:1.5;" width="859.0049" x="339.7583" y="736.3516"/><rect fill="none" height="75.3984" style="stroke:#000000;stroke-width:1.5;" width="859.0049" x="339.7583" y="883.0156"/><rect fill="none" height="104.5313" style="stroke:#000000;stroke-width:1.5;" width="859.0049" x="339.7583" y="972.4141"/><line style="stroke:#181818;stroke-width:0.5;stroke-dasharray:5.0,5.0;" x1="35" x2="35" y1="81.2969" y2="1093.9453"/><line style="stroke:#181818;stroke-width:0.5;stroke-dasharray:5.0,5.0;" x1="175.9067" x2="175.9067" y1="81.2969" y2="1093.9453"/><line style="stroke:#181818;stroke-width:0.5;stroke-dasharray:5.0,5.0;" x1="386.7583" x2="386.7583" y1="81.2969" y2="1093.9453"/><line style="stroke:#181818;stroke-width:0.5;stroke-dasharray:5.0,5.0;" x1="836.9966" x2="836.9966" y1="81.2969" y2="1093.9453"/><line style="stroke:#181818;stroke-width:0.5;stroke-dasharray:5.0,5.0;" x1="1166.2251" x2="1166.2251" y1="81.2969" y2="1093.9453"/><text fill="#000000" font-family="sans-serif" font-size="14" lengthAdjust="spacing" textLength="54.4346" x="5" y="77.9951">Android</text><ellipse cx="35.2173" cy="13.5" fill="#008000" rx="8" ry="8" style="stroke:#181818;stroke-width:0.5;"/><path d="M35.2173,21.5 L35.2173,48.5 M22.2173,29.5 L48.2173,29.5 M35.2173,48.5 L22.2173,63.5 M35.2173,48.5 L48.2173,63.5 " fill="none" style="stroke:#181818;stroke-width:0.5;"/><text fill="#000000" font-family="sans-serif" font-size="14" lengthAdjust="spacing" textLength="54.4346" x="5" y="1105.9404">Android</text><ellipse cx="35.2173" cy="1117.7422" fill="#008000" rx="8" ry="8" style="stroke:#181818;stroke-width:0.5;"/><path d="M35.2173,1125.7422 L35.2173,1152.7422 M22.2173,1133.7422 L48.2173,1133.7422 M35.2173,1152.7422 L22.2173,1167.7422 M35.2173,1152.7422 L48.2173,1167.7422 " fill="none" style="stroke:#181818;stroke-width:0.5;"/><rect fill="#E2E2F0" height="30.2969" rx="2.5" ry="2.5" style="stroke:#181818;stroke-width:0.5;" width="121.5225" x="115.9067" y="50"/><text fill="#000000" font-family="sans-serif" font-size="14" lengthAdjust="spacing" textLength="107.5225" x="122.9067" y="69.9951">SceneRenderer</text><rect fill="#E2E2F0" height="30.2969" rx="2.5" ry="2.5" style="stroke:#181818;stroke-width:0.5;" width="121.5225" x="115.9067" y="1092.9453"/><text fill="#000000" font-family="sans-serif" font-size="14" lengthAdjust="spacing" textLength="107.5225" x="122.9067" y="1112.9404">SceneRenderer</text><rect fill="#E2E2F0" height="30.2969" rx="2.5" ry="2.5" style="stroke:#181818;stroke-width:0.5;" width="75.9336" x="349.7583" y="50"/><text fill="#000000" font-family="sans-serif" font-size="14" lengthAdjust="spacing" textLength="61.9336" x="356.7583" y="69.9951">3Dshape</text><rect fill="#E2E2F0" height="30.2969" rx="2.5" ry="2.5" style="stroke:#181818;stroke-width:0.5;" width="75.9336" x="349.7583" y="1092.9453"/><text fill="#000000" font-family="sans-serif" font-size="14" lengthAdjust="spacing" textLength="61.9336" x="356.7583" y="1112.9404">3Dshape</text><rect fill="#E2E2F0" height="30.2969" rx="2.5" ry="2.5" style="stroke:#181818;stroke-width:0.5;" width="68.1953" x="802.9966" y="50"/><text fill="#000000" font-family="sans-serif" font-size="14" lengthAdjust="spacing" textLength="54.1953" x="809.9966" y="69.9951">GLES20</text><rect fill="#E2E2F0" height="30.2969" rx="2.5" ry="2.5" style="stroke:#181818;stroke-width:0.5;" width="68.1953" x="802.9966" y="1092.9453"/><text fill="#000000" font-family="sans-serif" font-size="14" lengthAdjust="spacing" textLength="54.1953" x="809.9966" y="1112.9404">GLES20</text><rect fill="#99FF99" height="30.2969" rx="2.5" ry="2.5" style="stroke:#181818;stroke-width:0.5;" width="43.5381" x="1145.2251" y="50"/><text fill="#000000" font-family="sans-serif" font-size="14" lengthAdjust="spacing" textLength="29.5381" x="1152.2251" y="69.9951">GPU</text><rect fill="#99FF99" height="30.2969" rx="2.5" ry="2.5" style="stroke:#181818;stroke-width:0.5;" width="43.5381" x="1145.2251" y="1092.9453"/><text fill="#000000" font-family="sans-serif" font-size="14" lengthAdjust="spacing" textLength="29.5381" x="1152.2251" y="1112.9404">GPU</text><rect fill="#FFFFFF" height="972.5156" style="stroke:#181818;stroke-width:1.0;" width="10" x="171.668" y="112.4297"/><polygon fill="#181818" points="159.668,108.4297,169.668,112.4297,159.668,116.4297,163.668,112.4297" style="stroke:#181818;stroke-width:1.0;"/><line style="stroke:#181818;stroke-width:1.0;" x1="35.2173" x2="165.668" y1="112.4297" y2="112.4297"/><text fill="#000000" font-family="sans-serif" font-size="13" lengthAdjust="spacing" textLength="117.4507" x="42.2173" y="107.3638">onSurfaceCreated</text><polygon fill="#181818" points="375.7251,137.5625,385.7251,141.5625,375.7251,145.5625,379.7251,141.5625" style="stroke:#181818;stroke-width:1.0;"/><line style="stroke:#181818;stroke-width:1.0;" x1="181.668" x2="381.7251" y1="141.5625" y2="141.5625"/><text fill="#000000" font-family="sans-serif" font-size="13" lengthAdjust="spacing" textLength="150.2363" x="188.668" y="136.4966">create shape definition</text><line style="stroke:#181818;stroke-width:1.0;" x1="387.7251" x2="429.7251" y1="170.6953" y2="170.6953"/><line style="stroke:#181818;stroke-width:1.0;" x1="429.7251" x2="429.7251" y1="170.6953" y2="183.6953"/><line style="stroke:#181818;stroke-width:1.0;" x1="388.7251" x2="429.7251" y1="183.6953" y2="183.6953"/><polygon fill="#181818" points="398.7251,179.6953,388.7251,183.6953,398.7251,187.6953,394.7251,183.6953" style="stroke:#181818;stroke-width:1.0;"/><text fill="#000000" font-family="sans-serif" font-size="13" lengthAdjust="spacing" textLength="249.0376" x="394.7251" y="165.6294">define vertices of shape (VertexArray)</text><line style="stroke:#181818;stroke-width:1.0;" x1="387.7251" x2="429.7251" y1="212.8281" y2="212.8281"/><line style="stroke:#181818;stroke-width:1.0;" x1="429.7251" x2="429.7251" y1="212.8281" y2="225.8281"/><line style="stroke:#181818;stroke-width:1.0;" x1="388.7251" x2="429.7251" y1="225.8281" y2="225.8281"/><polygon fill="#181818" points="398.7251,221.8281,388.7251,225.8281,398.7251,229.8281,394.7251,225.8281" style="stroke:#181818;stroke-width:1.0;"/><text fill="#000000" font-family="sans-serif" font-size="13" lengthAdjust="spacing" textLength="184.2026" x="394.7251" y="207.7622">put them into verticesBuffer</text><line style="stroke:#181818;stroke-width:1.0;" x1="387.7251" x2="429.7251" y1="270.0938" y2="270.0938"/><line style="stroke:#181818;stroke-width:1.0;" x1="429.7251" x2="429.7251" y1="270.0938" y2="283.0938"/><line style="stroke:#181818;stroke-width:1.0;" x1="388.7251" x2="429.7251" y1="283.0938" y2="283.0938"/><polygon fill="#181818" points="398.7251,279.0938,388.7251,283.0938,398.7251,287.0938,394.7251,283.0938" style="stroke:#181818;stroke-width:1.0;"/><text fill="#000000" font-family="sans-serif" font-size="13" lengthAdjust="spacing" textLength="289.1992" x="394.7251" y="249.895">list vertices indexes of trangles (IndexArray)</text><text fill="#000000" font-family="sans-serif" font-size="13" lengthAdjust="spacing" textLength="187.7446" x="402.9897" y="265.0278">composing faces of 3Dshape</text><line style="stroke:#181818;stroke-width:1.0;" x1="387.7251" x2="429.7251" y1="312.2266" y2="312.2266"/><line style="stroke:#181818;stroke-width:1.0;" x1="429.7251" x2="429.7251" y1="312.2266" y2="325.2266"/><line style="stroke:#181818;stroke-width:1.0;" x1="388.7251" x2="429.7251" y1="325.2266" y2="325.2266"/><polygon fill="#181818" points="398.7251,321.2266,388.7251,325.2266,398.7251,329.2266,394.7251,325.2266" style="stroke:#181818;stroke-width:1.0;"/><text fill="#000000" font-family="sans-serif" font-size="13" lengthAdjust="spacing" textLength="225.1514" x="394.7251" y="307.1606">put them into vertexIndexesBuffer</text><polygon fill="#181818" points="159.668,350.3594,169.668,354.3594,159.668,358.3594,163.668,354.3594" style="stroke:#181818;stroke-width:1.0;"/><line style="stroke:#181818;stroke-width:1.0;" x1="35.2173" x2="165.668" y1="354.3594" y2="354.3594"/><text fill="#000000" font-family="sans-serif" font-size="13" lengthAdjust="spacing" textLength="91.5967" x="42.2173" y="349.2935">onDrawFrame</text><polygon fill="#181818" points="825.0942,379.4922,835.0942,383.4922,825.0942,387.4922,829.0942,383.4922" style="stroke:#181818;stroke-width:1.0;"/><line style="stroke:#181818;stroke-width:1.0;" x1="181.668" x2="831.0942" y1="383.4922" y2="383.4922"/><text fill="#000000" font-family="sans-serif" font-size="13" lengthAdjust="spacing" textLength="211.8594" x="188.668" y="378.4263">glUseProgram(programObjectId)</text><path d="M842,396.4922 L842,436.4922 L1180,436.4922 L1180,406.4922 L1170,396.4922 L842,396.4922 " fill="#FEFFDD" style="stroke:#181818;stroke-width:0.5;"/><path d="M1170,396.4922 L1170,406.4922 L1180,406.4922 L1170,396.4922 " fill="#FEFFDD" style="stroke:#181818;stroke-width:0.5;"/><text fill="#000000" font-family="sans-serif" font-size="13" lengthAdjust="spacing" textLength="317.9287" x="848" y="413.5591">programObject consists of both fragment shader</text><text fill="#000000" font-family="sans-serif" font-size="13" lengthAdjust="spacing" textLength="119.1201" x="852.1323" y="428.6919">and vertex shader</text><polygon fill="#181818" points="1154.9941,458.8906,1164.9941,462.8906,1154.9941,466.8906,1158.9941,462.8906" style="stroke:#181818;stroke-width:1.0;"/><line style="stroke:#181818;stroke-width:1.0;" x1="837.0942" x2="1160.9941" y1="462.8906" y2="462.8906"/><text fill="#000000" font-family="sans-serif" font-size="13" lengthAdjust="spacing" textLength="139.9404" x="844.0942" y="457.8247">select programToRun</text><polygon fill="#181818" points="375.7251,533.4219,385.7251,537.4219,375.7251,541.4219,379.7251,537.4219" style="stroke:#181818;stroke-width:1.0;"/><line style="stroke:#181818;stroke-width:1.0;" x1="181.668" x2="381.7251" y1="537.4219" y2="537.4219"/><text fill="#000000" font-family="sans-serif" font-size="13" lengthAdjust="spacing" textLength="155.6572" x="188.668" y="486.9575">draw(aPositionLocation,</text><text fill="#000000" font-family="sans-serif" font-size="13" lengthAdjust="spacing" textLength="101.5244" x="229.9912" y="502.0903">uColorLocation,</text><text fill="#000000" font-family="sans-serif" font-size="13" lengthAdjust="spacing" textLength="108.5132" x="229.9912" y="517.2231">uMatrixLocation,</text><text fill="#000000" font-family="sans-serif" font-size="13" lengthAdjust="spacing" textLength="140.7339" x="229.9912" y="532.356">viewProjectionMatrix)</text><path d="M339.7583,552.4219 L779.3413,552.4219 L779.3413,559.5547 L769.3413,569.5547 L339.7583,569.5547 L339.7583,552.4219 " fill="#EEEEEE" style="stroke:#000000;stroke-width:1.5;"/><rect fill="none" height="169.9297" style="stroke:#000000;stroke-width:1.5;" width="859.0049" x="339.7583" y="552.4219"/><text fill="#000000" font-family="sans-serif" font-size="13" font-weight="bold" lengthAdjust="spacing" textLength="394.583" x="354.7583" y="565.4888">prepare DataSource for "attribute" variable of shader</text><polygon fill="#181818" points="825.0942,586.6875,835.0942,590.6875,825.0942,594.6875,829.0942,590.6875" style="stroke:#181818;stroke-width:1.0;"/><line style="stroke:#181818;stroke-width:1.0;" x1="387.7251" x2="831.0942" y1="590.6875" y2="590.6875"/><text fill="#000000" font-family="sans-serif" font-size="13" lengthAdjust="spacing" textLength="361.2515" x="394.7251" y="585.6216">glVertexAttribPointer(aPositionLocation, verticesBuffer)</text><path d="M708,603.6875 L708,658.6875 L965,658.6875 L965,613.6875 L955,603.6875 L708,603.6875 " fill="#FEFFDD" style="stroke:#181818;stroke-width:0.5;"/><path d="M955,603.6875 L955,613.6875 L965,613.6875 L955,603.6875 " fill="#FEFFDD" style="stroke:#181818;stroke-width:0.5;"/><text fill="#000000" font-family="sans-serif" font-size="13" lengthAdjust="spacing" textLength="118.4409" x="714" y="620.7544">link verticesBuffer</text><text fill="#000000" font-family="sans-serif" font-size="13" lengthAdjust="spacing" textLength="236.1392" x="714" y="635.8872">as data source for aPositionLocation</text><text fill="#000000" font-family="sans-serif" font-size="13" lengthAdjust="spacing" textLength="179.5879" x="714" y="651.02">attribute inside GPU shader</text><polygon fill="#181818" points="825.0942,681.2188,835.0942,685.2188,825.0942,689.2188,829.0942,685.2188" style="stroke:#181818;stroke-width:1.0;"/><line style="stroke:#181818;stroke-width:1.0;" x1="387.7251" x2="831.0942" y1="685.2188" y2="685.2188"/><text fill="#000000" font-family="sans-serif" font-size="13" lengthAdjust="spacing" textLength="295.1089" x="394.7251" y="680.1528">glEnableVertexAttribArray(aPositionLocation)</text><polygon fill="#181818" points="1154.9941,710.3516,1164.9941,714.3516,1154.9941,718.3516,1158.9941,714.3516" style="stroke:#181818;stroke-width:1.0;"/><line style="stroke:#181818;stroke-width:1.0;" x1="837.0942" x2="1160.9941" y1="714.3516" y2="714.3516"/><text fill="#000000" font-family="sans-serif" font-size="13" lengthAdjust="spacing" textLength="269.0771" x="844.0942" y="709.2856">pass vertices buffer for aPositionLocation</text><path d="M339.7583,736.3516 L672.7388,736.3516 L672.7388,743.4844 L662.7388,753.4844 L339.7583,753.4844 L339.7583,736.3516 " fill="#EEEEEE" style="stroke:#000000;stroke-width:1.5;"/><rect fill="none" height="132.6641" style="stroke:#000000;stroke-width:1.5;" width="859.0049" x="339.7583" y="736.3516"/><text fill="#000000" font-family="sans-serif" font-size="13" font-weight="bold" lengthAdjust="spacing" textLength="287.9805" x="354.7583" y="749.4185">set "uniform" Matrix variable of shader</text><line style="stroke:#181818;stroke-width:1.0;" x1="387.7251" x2="429.7251" y1="789.75" y2="789.75"/><line style="stroke:#181818;stroke-width:1.0;" x1="429.7251" x2="429.7251" y1="789.75" y2="802.75"/><line style="stroke:#181818;stroke-width:1.0;" x1="388.7251" x2="429.7251" y1="802.75" y2="802.75"/><polygon fill="#181818" points="398.7251,798.75,388.7251,802.75,398.7251,806.75,394.7251,802.75" style="stroke:#181818;stroke-width:1.0;"/><text fill="#000000" font-family="sans-serif" font-size="13" lengthAdjust="spacing" textLength="232.502" x="394.7251" y="769.5513">multiply world viewProjectionMatrix</text><text fill="#000000" font-family="sans-serif" font-size="13" lengthAdjust="spacing" textLength="233.1367" x="394.7251" y="784.6841">with 3Dshape internal model Matrix</text><polygon fill="#181818" points="825.0942,827.8828,835.0942,831.8828,825.0942,835.8828,829.0942,831.8828" style="stroke:#181818;stroke-width:1.0;"/><line style="stroke:#181818;stroke-width:1.0;" x1="387.7251" x2="831.0942" y1="831.8828" y2="831.8828"/><text fill="#000000" font-family="sans-serif" font-size="13" lengthAdjust="spacing" textLength="425.3691" x="394.7251" y="826.8169">glUniformMatrix4fv(uMatrixLocation, modelViewProjectionMatrix)</text><polygon fill="#181818" points="1154.9941,857.0156,1164.9941,861.0156,1154.9941,865.0156,1158.9941,861.0156" style="stroke:#181818;stroke-width:1.0;"/><line style="stroke:#181818;stroke-width:1.0;" x1="837.0942" x2="1160.9941" y1="861.0156" y2="861.0156"/><text fill="#000000" font-family="sans-serif" font-size="13" lengthAdjust="spacing" textLength="285.7524" x="844.0942" y="855.9497">set current Matrix for 3D shapes calculation</text><path d="M339.7583,883.0156 L663.833,883.0156 L663.833,890.1484 L653.833,900.1484 L339.7583,900.1484 L339.7583,883.0156 " fill="#EEEEEE" style="stroke:#000000;stroke-width:1.5;"/><rect fill="none" height="75.3984" style="stroke:#000000;stroke-width:1.5;" width="859.0049" x="339.7583" y="883.0156"/><text fill="#000000" font-family="sans-serif" font-size="13" font-weight="bold" lengthAdjust="spacing" textLength="279.0747" x="354.7583" y="896.0825">set "uniform" Color variable of shader</text><polygon fill="#181818" points="825.0942,917.2813,835.0942,921.2813,825.0942,925.2813,829.0942,921.2813" style="stroke:#181818;stroke-width:1.0;"/><line style="stroke:#181818;stroke-width:1.0;" x1="387.7251" x2="831.0942" y1="921.2813" y2="921.2813"/><text fill="#000000" font-family="sans-serif" font-size="13" lengthAdjust="spacing" textLength="254.0459" x="394.7251" y="916.2153">glUniform4f(uColorLocation, faceColor)</text><polygon fill="#181818" points="1154.9941,946.4141,1164.9941,950.4141,1154.9941,954.4141,1158.9941,950.4141" style="stroke:#181818;stroke-width:1.0;"/><line style="stroke:#181818;stroke-width:1.0;" x1="837.0942" x2="1160.9941" y1="950.4141" y2="950.4141"/><text fill="#000000" font-family="sans-serif" font-size="13" lengthAdjust="spacing" textLength="163.1602" x="844.0942" y="945.3481">set current "active" color</text><path d="M339.7583,972.4141 L421.2573,972.4141 L421.2573,979.5469 L411.2573,989.5469 L339.7583,989.5469 L339.7583,972.4141 " fill="#EEEEEE" style="stroke:#000000;stroke-width:1.5;"/><rect fill="none" height="104.5313" style="stroke:#000000;stroke-width:1.5;" width="859.0049" x="339.7583" y="972.4141"/><text fill="#000000" font-family="sans-serif" font-size="13" font-weight="bold" lengthAdjust="spacing" textLength="36.499" x="354.7583" y="985.481">draw</text><polygon fill="#181818" points="825.0942,1006.6797,835.0942,1010.6797,825.0942,1014.6797,829.0942,1010.6797" style="stroke:#181818;stroke-width:1.0;"/><line style="stroke:#181818;stroke-width:1.0;" x1="387.7251" x2="831.0942" y1="1010.6797" y2="1010.6797"/><text fill="#000000" font-family="sans-serif" font-size="13" lengthAdjust="spacing" textLength="354.1104" x="394.7251" y="1005.6138">glDrawElements(GL_TRIANGLES, vertexIndexesBuffer)</text><polygon fill="#181818" points="1154.9941,1035.8125,1164.9941,1039.8125,1154.9941,1043.8125,1158.9941,1039.8125" style="stroke:#181818;stroke-width:1.0;"/><line style="stroke:#181818;stroke-width:1.0;" x1="837.0942" x2="1160.9941" y1="1039.8125" y2="1039.8125"/><text fill="#000000" font-family="sans-serif" font-size="13" lengthAdjust="spacing" textLength="305.8999" x="844.0942" y="1034.7466">pass indexes of vertices to build triangles from</text><polygon fill="#181818" points="1154.9941,1064.9453,1164.9941,1068.9453,1154.9941,1072.9453,1158.9941,1068.9453" style="stroke:#181818;stroke-width:1.0;"/><line style="stroke:#181818;stroke-width:1.0;" x1="837.0942" x2="1160.9941" y1="1068.9453" y2="1068.9453"/><text fill="#000000" font-family="sans-serif" font-size="13" lengthAdjust="spacing" textLength="210.1201" x="844.0942" y="1063.8794">draw triangles of 3Dshape faces</text><!--SRC=[ZLHDRzim3BtxLn3fnG4sO5jxIGu3kgOj0dHRq3Gz5HWKctQqoP8XoKdwxqTzE74ShsikLaHIV7ny9CkiqX1-rpBNYkVn7pFjnMUuA3MYJ6gcBSzupQI5POOI7r7cg54xvvEB4zVBcTcm6frJF9wOxnzkbry-EMiudHeNAs-XpyLaSdStcIJ90TR7hwTPfw3aij45o_168xEO9oopV4kd7hnJzFHE13Q5p0T2G9nZmIMtNCcaBQBhwyq8MtHuqO0gObpwJ5UulzQQlOu7G-l6WjrW1LnQTNZXMrCKX6umGd1ZZwauGT-7b5OpMGewftDt6PB2YmJ8L5KhmsK9ZXBlt3RWVPXmFmzvMc1lKZ_JR7UdMON9ER-XjLCenShWGgkI_D8wV7-kVsDcv_auaOgerxpSs8CMkYvKa3H4WwzahUm62itA2aadL0BbIe39F29lhmW4k7UJg3C7Ph6QWa7Xdem9djHZ8vFa3M7aL5tA5iIdqyE3ofZxVd0yjx_cHWcbXqtVcTLyFsZRSjmH9Qv2CWN7SL9grTG43saS46RCigLgT8PGqC2Ec2MlTMDn15kcELiBZF9pDNUwUoG-Qj87BXJr6FL0FJqjnfuekcrR8hZyqrSiZMXE2C4S8PuzdHmmay0Cpz5FTRzBWz1lfIkmMu1N-JdySR_BDJFcE3LhZ_OVy0X24batQ67KI4wErGX2H_x3yq4dLICihyKhx9GM-M1pN-IEatZRQDyAoGHKAaSHqmqJiGgOWijLiKtxkWflF0ygwcm0QA0QhTtun18TCPUpiCGCP4naZUYGCyYEr_oxHHWBk2hIth3u5UMltWGwyWkTL9yvrsxFt7mEvtHxwLQWsnCclN_uzVGul_xXp1-6bjomX3hxzg0cMfBhXbEFYRkuWWkjgdwy0zPnEIxXi9LT3Ny1]--></g></svg>